<?xml version="1.0" encoding="utf-8"?>
<!-- Generator: Adobe Illustrator 22.1.0, SVG Export Plug-In . SVG Version: 6.00 Build 0)  -->
<svg version="1.1" id="レイヤー_1" xmlns="http://www.w3.org/2000/svg" xmlns:xlink="http://www.w3.org/1999/xlink" x="0px"
	 y="0px" viewBox="0 0 214 154" style="enable-background:new 0 0 214 154;" xml:space="preserve">
<style type="text/css">
	.st0{fill:#F8CEDC;}
	.st1{fill:#50473D;}
</style>
<path class="st0" d="M104.2,131.7c-1.2-2-3.2-3.6-5.4-4.5c-14.2-6-32,3.3-52.9-4.2c-16.2-5.8-32.3-21.1-33.4-39
	c-2.3-37.9,32.1-53,53.6-58.9c21.5-6,44-7.6,66.3-7.3c17.4,0.2,64.4,5,70.8,37.1c4.3,21.9-0.2,43.4-68.9,69.4
	c-14.8,5.6-26.4,18.2-40.4,24.1C99.3,144.4,107.2,136.7,104.2,131.7z"/>
<path class="st1" d="M113.1,67.7c-0.2,0-0.5-0.1-0.7-0.3c-0.3-0.4-0.3-0.9,0-1.3c0.4-0.4,0.8-0.8,1.2-1.3c0.3-0.4,0.9-0.4,1.3-0.1
	s0.4,0.9,0.1,1.3c-0.4,0.5-0.9,1-1.4,1.5C113.6,67.6,113.4,67.7,113.1,67.7z"/>
<path class="st1" d="M48.6,97.5c-1.1,0-2.3-0.1-3.4-0.4c-4.2-1-7.6-3.8-8.9-7.3c-1.5-4,0-8.9,3.5-10.8c0.4-0.2,1-0.1,1.2,0.3
	s0.1,1-0.3,1.2C38,82,36.8,85.9,38,89.1c1.1,2.9,4.1,5.3,7.7,6.2c3.9,0.9,8.1,0,10.9-2.4c2.9-2.6,4.1-6.9,2.8-10.3
	c-1-2.8-3.4-4.8-5.9-6.9c-0.6-0.5-1.3-1.1-1.9-1.6c-0.5-0.5-1.1-1-1.8-1.5c-2.3-1.9-5-4.1-5.8-6.8c-1.1-3.8-0.3-7.4,2.2-9.9
	c2.4-2.4,5.7-2.8,8.1-2.3c3.1,0.6,6.3,3,6.5,6.5c0.1,1.8-0.7,3.6-2.1,4.8c-1.3,1.2-3,1.6-4.5,1.3c-0.5-0.1-0.8-0.6-0.7-1.1
	c0.1-0.5,0.6-0.8,1.1-0.7c1,0.2,2.1-0.1,3-0.9c1-0.9,1.6-2.2,1.5-3.4c-0.1-2.5-2.7-4.3-5.1-4.8c-1.9-0.4-4.6-0.1-6.5,1.8
	c-2,2-2.6,5-1.7,8.1c0.6,2.2,3.1,4.1,5.2,5.9c0.7,0.5,1.3,1.1,1.8,1.5c0.6,0.5,1.2,1.1,1.9,1.6c2.6,2.2,5.2,4.4,6.5,7.7
	c1.5,4.1,0.2,9.2-3.3,12.3C55.3,96.4,52,97.5,48.6,97.5z"/>
<path class="st1" d="M52.2,97.1c-0.4,0-0.8-0.3-0.9-0.7c-0.1-0.5,0.1-1,0.6-1.1c5.4-1.5,10.4-6.2,13.9-12.7c0.4-0.8,0.8-1.5,1.1-2.2
	c0.8-1.6,1.5-3,2.6-4.5c0.7-0.9,2-2.6,3.9-2.6l0,0c1.8,0,3.1,1.5,3.5,3c0.4,1.4,0.2,2.9,0,4.2L76.8,81c1-2.3,2.2-4.6,3.6-6.7
	c0.7-1,2.5-2.7,4.9-1.7c2,0.9,1.9,3.8,1.8,5.3v0.4c0,0.6-0.1,1.2-0.1,1.8c1.7-3.6,3.6-6.7,5.4-8c0.8-0.6,1.7-0.8,2.4-0.7h0.1
	c4,1.2,2.8,7.2,1.9,11.6l-0.1,0.6c-0.5,2.3-0.3,4.2,0.4,5.1c0.3,0.4,0.8,0.7,1.4,0.7c5.5,0.4,11.7-11.4,13-16
	c0.1-0.4,0.2-0.7,0.2-1.1c0.1-0.5,0.6-0.8,1-0.7c0.5,0.1,0.8,0.5,0.7,1c0,0.3-0.1,0.6-0.2,1.1c-0.8,4-1,7.2-0.6,10.2
	c0.1,1,0.4,2.3,1.2,3c0.9,0.8,2.4,0.6,3.1,0.5c3.1-0.9,7.1-6.2,10.6-12.7c-1.6-8.4-0.5-16.6,3.3-25c1.1-2.4,2.7-3.8,4.1-3.5
	c0.1,0,0.1,0,0.2,0c3.2,1.3,1.8,7.8,0.2,13.8c-1.1,4.4-3.3,9.9-6,15c0.4,1.7,0.9,3.5,1.5,5.2c0.5,1.4,1.1,2.8,2.1,3.8
	c1.1,1.1,3,1,4,0.8c2-0.5,4.1-2.3,5.5-3.8c-2.1-2.7-2.8-6.5-1.8-9.8c0.6-1.9,1.7-3.5,3.2-4.5c1.7-1.2,3.8-1.6,5.6-1.1
	c0.3,0.1,0.9,0.3,1.3,0.7c1,1,0.7,2.4,0.7,2.9c-0.7,4.2-2.9,7.6-6.1,11.4c-0.1,0.1-0.2,0.3-0.3,0.4c0.4,0.4,0.8,0.7,1.3,1
	c1.7,1,4,1.3,7.2,0.9c3.9-0.5,6.4-1.7,9.4-3.7c4.9-3.3,10.3-9.4,11.2-15.5c0.2-1.7,0.2-3.1-0.1-4.3c-0.4-1.3-1.2-2.3-2.1-2.6
	c-1.3-0.5-2.7,0.4-3.5,1.3c-1.1,1.2-1.8,2.9-2.5,4.5c-0.1,0.3-0.5,0.5-0.9,0.5s-0.7-0.3-0.8-0.6c-0.1-0.3-0.2-0.7-0.3-1.1
	c-1-3.7-2.1-6-4.3-5.5c-1,0.3-1.8,0.8-2.2,1.8c-1.5,2.9-0.1,8.2,0.6,10c1,2.8,2.8,5.9,5,8.9c0.3,0.4,0.2,1-0.2,1.3
	c-0.4,0.3-1,0.2-1.3-0.2c-2.3-3.1-4.1-6.5-5.2-9.4c-0.1-0.3-2.7-7.2-0.5-11.4c0.7-1.4,1.9-2.3,3.4-2.7c3.7-1,5.3,2.7,6.1,5.4
	c0.5-1,1.1-1.9,1.8-2.7c1.6-1.7,3.7-2.4,5.4-1.8c1.5,0.5,2.7,2,3.2,3.9c0.4,1.4,0.5,3,0.2,5c-1,7.1-7.1,13.4-12,16.7
	c-3.1,2.1-5.9,3.5-10.1,4c-3.7,0.5-6.3,0.1-8.4-1.1c-0.6-0.3-1.1-0.8-1.6-1.2c-1.7,1.7-4,3.6-6.3,4.2c-2.4,0.4-4.4,0-5.7-1.3
	c-1.3-1.3-2-2.9-2.5-4.5c-0.4-1.2-0.8-2.3-1.1-3.5c-3.4,5.9-7.3,10.8-10.7,11.8c-2,0.4-3.6,0.1-4.8-0.8c-1.3-1.1-1.7-2.8-1.8-4.2
	c-0.2-1.3-0.2-2.7-0.2-4.2c-2.8,5.4-7.4,11.5-12.3,11.2c-1.2-0.1-2.1-0.6-2.7-1.4c-1.3-1.7-1.1-4.5-0.7-6.6l0.1-0.6
	c0.7-3.3,1.7-8.8-0.6-9.6c-0.3,0-0.7,0.2-1,0.4c-2.9,2-6.6,10.2-8,16.3c-0.1,0.6-0.3,1.3-0.4,1.9c-0.1,0.5-0.6,0.8-1,0.7
	c-0.5-0.1-0.8-0.6-0.7-1c0.1-0.7,0.3-1.3,0.4-2c0.7-3.7,1.4-7.5,1.6-11.2v-0.4c0.1-1,0.2-3.2-0.7-3.6c-1.5-0.7-2.6,1-2.6,1
	c-3.6,5.5-6,11.9-6.9,18.4c-0.1,0.5-0.5,0.8-1,0.8c-0.5-0.1-0.8-0.5-0.8-1l1.8-13.1c0.2-1.2,0.3-2.3,0-3.4c-0.2-0.8-1-1.7-1.8-1.7
	l0,0c-0.9,0-1.7,0.9-2.5,1.9c-1,1.4-1.7,2.6-2.5,4.2c-0.3,0.7-0.7,1.4-1.1,2.2c-3.7,7-9.1,12-15,13.6C52.4,97.1,52.3,97.1,52.2,97.1
	z M148,67.3c-1,0-2,0.3-2.9,1c-1.1,0.8-2,2.1-2.5,3.6c-0.9,2.7-0.3,5.7,1.3,7.9c0.1-0.1,0.1-0.1,0.2-0.2c3-3.6,5.1-6.7,5.7-10.5
	c0.1-0.7,0.1-1.2-0.2-1.4c-0.1-0.1-0.3-0.2-0.5-0.3C148.8,67.3,148.4,67.3,148,67.3z M134.8,48c-0.3,0.1-1.2,0.8-2,2.5
	c-3.3,7.3-4.5,14.4-3.6,21.6c2-4.2,3.7-8.6,4.7-12.5C136.1,51,135.6,48.6,134.8,48z"/>
<path class="st1" d="M90.2,145.2c-0.4,0-0.9-0.2-1.1-0.6c-0.3-0.5-0.2-1.2,0.3-1.6c6.3-4.7,12-11.3,9.8-15l0,0c-1-1.7-2.7-3.1-4.8-4
	c-6.4-2.7-13.5-2.2-21.7-1.6c-9.3,0.7-19.7,1.5-31.1-2.6C25.5,114,8.6,98.4,7.4,79.7c-1-17.1,5.1-31.4,18.3-42.5
	c9.1-7.6,21.2-13.6,36.2-17.7c19.2-5.3,40.4-7.7,66.7-7.4c10.8,0.1,65,2.5,72,38.1c5.1,25.5-4.8,46.2-69.7,70.8
	c-7.6,2.9-14.5,7.8-21.1,12.5c-6.1,4.3-12.4,8.8-19.2,11.6C90.6,145.2,90.4,145.2,90.2,145.2z M101.5,126.7
	c2.2,3.7-0.2,8.1-3.4,11.8c3.5-2.1,6.9-4.5,10.4-7c6.8-4.8,13.8-9.8,21.7-12.8c70-26.5,72-48.1,68.1-68c-6.7-33.7-59.1-36-69.6-36.1
	c-26.1-0.3-47,2-66,7.3C37.5,28.9,7.9,44.6,10,79.6c1.1,17.6,17.2,32.4,32.5,37.9c10.8,3.9,21,3.1,30.1,2.4c8.2-0.6,16-1.2,22.9,1.8
	C98,122.8,100.2,124.6,101.5,126.7z"/>
</svg>
