<?xml version="1.0" encoding="iso-8859-1"?>
<!-- Generator: Adobe Illustrator 19.0.0, SVG Export Plug-In . SVG Version: 6.00 Build 0)  -->
<svg version="1.1" id="Capa_1" xmlns="http://www.w3.org/2000/svg" xmlns:xlink="http://www.w3.org/1999/xlink" x="0px" y="0px"
	 viewBox="0 0 512 512" style="enable-background:new 0 0 512 512;" xml:space="preserve">
<linearGradient id="SVGID_1_" gradientUnits="userSpaceOnUse" x1="228.05" y1="326.5597" x2="2.6" y2="-25.3403" gradientTransform="matrix(1.0667 0 0 -1.0667 3.2667 557.5336)">
	<stop  offset="0" style="stop-color:#C2CECE"/>
	<stop  offset="1" style="stop-color:#97AAAA"/>
</linearGradient>
<path style="fill:url(#SVGID_1_);" d="M145.986,238.876L19.238,365.625c-25.65,25.65-25.65,67.238,0,92.889l34.25,34.25
	c25.65,25.65,67.238,25.65,92.889,0l126.749-126.749c25.65-25.65,25.65-67.238,0-92.889l-34.25-34.25
	C213.224,213.225,171.637,213.225,145.986,238.876z M87.331,455.581l-30.912-30.912c-6.959-6.959-6.959-18.241,0-25.2
	L179.83,276.058c6.959-6.959,18.241-6.959,25.2,0l30.912,30.912c6.959,6.959,6.959,18.241,0,25.2l-123.41,123.411
	C105.573,462.54,94.29,462.54,87.331,455.581z"/>
<linearGradient id="SVGID_2_" gradientUnits="userSpaceOnUse" x1="97.4269" y1="224.1173" x2="167.0169" y2="154.5374" gradientTransform="matrix(1.0667 0 0 -1.0667 3.2667 557.5336)">
	<stop  offset="0" style="stop-color:#363F3E;stop-opacity:0"/>
	<stop  offset="1" style="stop-color:#303033"/>
</linearGradient>
<path style="fill:url(#SVGID_2_);" d="M56.419,424.668c-6.959-6.959-6.959-18.241,0-25.2L179.83,276.057
	c6.959-6.959,18.241-6.959,25.2-0.001l8.521-7.743l-9.611-10.055c-14.347-14.347-37.607-14.347-51.955,0L46.974,363.268
	c-14.347,14.347-14.347,37.607,0,51.955L56.419,424.668z"/>
<linearGradient id="SVGID_3_" gradientUnits="userSpaceOnUse" x1="178.5972" y1="135.1176" x2="203.9172" y2="109.7976" gradientTransform="matrix(1.0667 0 0 -1.0667 3.2667 557.5336)">
	<stop  offset="0" style="stop-color:#363F3E;stop-opacity:0"/>
	<stop  offset="1" style="stop-color:#303033"/>
</linearGradient>
<path style="fill:url(#SVGID_3_);" d="M273.124,273.124l-28.535-28.535l5.714,5.714c25.65,25.65,25.65,67.238,0,92.889
	L123.554,469.94c-25.65,25.65-67.238,25.65-92.889,0l-5.714-5.714l28.535,28.535c25.65,25.65,67.238,25.65,92.889,0l126.749-126.749
	C298.775,340.363,298.775,298.776,273.124,273.124z"/>
<linearGradient id="SVGID_4_" gradientUnits="userSpaceOnUse" x1="222.3544" y1="122.4765" x2="-3.0956" y2="117.6065" gradientTransform="matrix(1.0667 0 0 -1.0667 3.2667 557.5336)">
	<stop  offset="0" style="stop-color:#C2CECE"/>
	<stop  offset="1" style="stop-color:#97AAAA"/>
</linearGradient>
<path style="fill:url(#SVGID_4_);" d="M64.51,432.759l-4.046-4.045L64.51,432.759z"/>
<linearGradient id="SVGID_5_" gradientUnits="userSpaceOnUse" x1="374.0377" y1="438.9392" x2="148.5877" y2="87.0402" gradientTransform="matrix(1.0667 0 0 -1.0667 3.2667 557.5336)">
	<stop  offset="0" style="stop-color:#C2CECE"/>
	<stop  offset="1" style="stop-color:#97AAAA"/>
</linearGradient>
<path style="fill:url(#SVGID_5_);" d="M365.624,19.239L238.875,145.986c-25.65,25.65-25.65,67.238,0,92.889l34.25,34.25
	c25.65,25.65,67.238,25.65,92.889,0l126.749-126.749c25.65-25.65,25.65-67.238,0-92.889l-34.25-34.25
	C432.862-6.413,391.274-6.413,365.624,19.239z M306.968,235.944l-30.912-30.912c-6.959-6.959-6.959-18.241,0-25.2L399.467,56.419
	c6.959-6.959,18.241-6.959,25.2,0l30.912,30.912c6.959,6.959,6.959,18.241,0,25.2l-123.41,123.412
	C325.21,242.903,313.927,242.903,306.968,235.944z"/>
<linearGradient id="SVGID_6_" gradientUnits="userSpaceOnUse" x1="299.3472" y1="426.1877" x2="368.1772" y2="357.3576" gradientTransform="matrix(1.0667 0 0 -1.0667 3.2667 557.5336)">
	<stop  offset="0" style="stop-color:#363F3E;stop-opacity:0"/>
	<stop  offset="1" style="stop-color:#303033"/>
</linearGradient>
<path style="fill:url(#SVGID_6_);" d="M276.056,205.031c-6.959-6.959-6.959-18.241,0-25.2L399.467,56.419
	c6.959-6.959,18.241-6.959,25.2-0.001l-10.307-8.581c-14.347-14.347-37.607-14.347-51.955,0l-95.794,95.794
	c-14.347,14.347-14.347,37.607,0,51.955L276.056,205.031z"/>
<linearGradient id="SVGID_7_" gradientUnits="userSpaceOnUse" x1="384.5074" y1="341.0279" x2="409.8275" y2="315.7079" gradientTransform="matrix(1.0667 0 0 -1.0667 3.2667 557.5336)">
	<stop  offset="0" style="stop-color:#363F3E;stop-opacity:0"/>
	<stop  offset="1" style="stop-color:#303033"/>
</linearGradient>
<path style="fill:url(#SVGID_7_);" d="M492.762,53.487l-28.535-28.535l5.714,5.714c25.65,25.65,25.65,67.238,0,92.889
	l-126.75,126.749c-25.65,25.65-67.238,25.65-92.889,0l-5.714-5.714l28.535,28.535c25.65,25.65,67.238,25.65,92.889,0
	l126.749-126.749C518.412,120.725,518.412,79.138,492.762,53.487z"/>
<linearGradient id="SVGID_8_" gradientUnits="userSpaceOnUse" x1="222.4504" y1="323.9406" x2="-2.9996" y2="319.0706" gradientTransform="matrix(1.0667 0 0 -1.0667 3.2667 557.5336)">
	<stop  offset="0" style="stop-color:#C2CECE"/>
	<stop  offset="1" style="stop-color:#97AAAA"/>
</linearGradient>
<path style="fill:url(#SVGID_8_);" d="M284.147,213.121l-4.046-4.045L284.147,213.121z"/>
<linearGradient id="SVGID_9_" gradientUnits="userSpaceOnUse" x1="281.6577" y1="237.9681" x2="227.4477" y2="292.1782" gradientTransform="matrix(1.0667 0 0 -1.0667 3.2667 557.5336)">
	<stop  offset="0" style="stop-color:#363F3E;stop-opacity:0"/>
	<stop  offset="1" style="stop-color:#303033"/>
</linearGradient>
<path style="fill:url(#SVGID_9_);" d="M273.13,273.131c21.964,21.964,25.114,55.609,9.462,80.927l-22.827-22.827l-21.717-21.717
	l-5.259-5.259l32.029-32.029l3.711-3.697l3.697-3.711l32.029-32.029l49.803,49.803C328.738,298.243,295.094,295.095,273.13,273.131z
	"/>
<linearGradient id="SVGID_10_" gradientUnits="userSpaceOnUse" x1="222.3872" y1="297.2376" x2="247.7272" y2="271.8976" gradientTransform="matrix(1.0667 0 0 -1.0667 3.2667 557.5336)">
	<stop  offset="0" style="stop-color:#C2CECE"/>
	<stop  offset="1" style="stop-color:#97AAAA"/>
</linearGradient>
<path style="fill:url(#SVGID_10_);" d="M318.23,193.802L318.23,193.802c-9.807-9.807-25.706-9.807-35.513,0
	c0,0-58.545,58.518-88.913,88.85c-9.834,9.822-9.831,25.75-0.003,35.579l0,0c9.807,9.807,25.706,9.807,35.513,0l88.916-88.916
	C328.036,219.507,328.036,203.608,318.23,193.802z"/>
<linearGradient id="SVGID_11_" gradientUnits="userSpaceOnUse" x1="245.7369" y1="273.8874" x2="258.9569" y2="260.6674" gradientTransform="matrix(1.0667 0 0 -1.0667 3.2667 557.5336)">
	<stop  offset="0" style="stop-color:#363F3E;stop-opacity:0"/>
	<stop  offset="1" style="stop-color:#303033"/>
</linearGradient>
<path style="fill:url(#SVGID_11_);" d="M318.23,193.802L318.23,193.802c-1.732-1.732-3.662-3.142-5.707-4.262
	c5.222,9.534,3.812,21.731-4.262,29.806l-88.916,88.916c-8.076,8.076-20.275,9.485-29.81,4.26c1.122,2.046,2.532,3.975,4.266,5.709
	l0,0c9.807,9.807,25.706,9.807,35.513,0l88.916-88.916C328.037,219.507,328.037,203.608,318.23,193.802z"/>
<g>
</g>
<g>
</g>
<g>
</g>
<g>
</g>
<g>
</g>
<g>
</g>
<g>
</g>
<g>
</g>
<g>
</g>
<g>
</g>
<g>
</g>
<g>
</g>
<g>
</g>
<g>
</g>
<g>
</g>
</svg>
