<?xml version="1.0" encoding="iso-8859-1"?>
<!-- Generator: Adobe Illustrator 19.0.0, SVG Export Plug-In . SVG Version: 6.00 Build 0)  -->
<svg version="1.1" id="Capa_1" xmlns="http://www.w3.org/2000/svg" xmlns:xlink="http://www.w3.org/1999/xlink" x="0px" y="0px"
	 viewBox="0 0 512 512" style="enable-background:new 0 0 512 512;" xml:space="preserve">
<linearGradient id="SVGID_1_" gradientUnits="userSpaceOnUse" x1="236.9375" y1="-293.3125" x2="236.9375" y2="379.1175" gradientTransform="matrix(1.0667 0 0 -1.0667 3.2667 557.5334)">
	<stop  offset="0" style="stop-color:#FFFFFF"/>
	<stop  offset="1" style="stop-color:#E8EFEE"/>
</linearGradient>
<path style="fill:url(#SVGID_1_);" d="M130.445,485.147V26.853C130.445,12.03,142.475,0,157.298,0h197.404
	c14.823,0,26.853,12.03,26.853,26.853v458.293c0,14.823-12.03,26.853-26.853,26.853H157.298
	C142.475,512,130.445,499.97,130.445,485.147z"/>
<linearGradient id="SVGID_2_" gradientUnits="userSpaceOnUse" x1="236.9375" y1="630.1275" x2="236.9375" y2="-21.0125" gradientTransform="matrix(1.0667 0 0 -1.0667 3.2667 557.5334)">
	<stop  offset="0" style="stop-color:#FFFFFF"/>
	<stop  offset="1" style="stop-color:#E8EFEE"/>
</linearGradient>
<path style="fill:url(#SVGID_2_);" d="M373.76,30.507v450.987c0,12.371-10.029,22.4-22.4,22.4H160.64
	c-12.371,0-22.4-10.029-22.4-22.4V30.507c0-12.371,10.029-22.4,22.4-22.4h190.72C363.731,8.107,373.76,18.135,373.76,30.507z"/>
<linearGradient id="SVGID_3_" gradientUnits="userSpaceOnUse" x1="236.9375" y1="503.9515" x2="236.9375" y2="17.5775" gradientTransform="matrix(1.0667 0 0 -1.0667 3.2667 557.5334)">
	<stop  offset="0" style="stop-color:#5B6A6A"/>
	<stop  offset="1" style="stop-color:#303033"/>
</linearGradient>
<path style="fill:url(#SVGID_3_);" d="M355.125,446.08H156.875c-4.283,0-7.755-3.472-7.755-7.755V73.675
	c0-4.283,3.472-7.755,7.755-7.755h198.251c4.283,0,7.755,3.472,7.755,7.755v364.651C362.88,442.608,359.408,446.08,355.125,446.08z"
	/>
<linearGradient id="SVGID_4_" gradientUnits="userSpaceOnUse" x1="236.9375" y1="491.1305" x2="236.9375" y2="472.5675" gradientTransform="matrix(1.0667 0 0 -1.0667 3.2667 557.5334)">
	<stop  offset="0" style="stop-color:#5B6A6A"/>
	<stop  offset="1" style="stop-color:#303033"/>
</linearGradient>
<path style="fill:url(#SVGID_4_);" d="M277.333,49.92h-42.667c-4.006,0-7.253-3.247-7.253-7.253l0,0
	c0-4.006,3.247-7.253,7.253-7.253h42.667c4.006,0,7.253,3.247,7.253,7.253l0,0C284.587,46.673,281.34,49.92,277.333,49.92z"/>
<linearGradient id="SVGID_5_" gradientUnits="userSpaceOnUse" x1="236.9375" y1="71.7275" x2="236.9375" y2="22.6875" gradientTransform="matrix(1.0667 0 0 -1.0667 3.2667 557.5334)">
	<stop  offset="0" style="stop-color:#C2CECE;stop-opacity:0"/>
	<stop  offset="0.179" style="stop-color:#AFBCBC;stop-opacity:0.179"/>
	<stop  offset="1" style="stop-color:#5B6A6A"/>
</linearGradient>
<path style="fill:url(#SVGID_5_);" d="M373.76,481.493v-7.129H138.24v7.129c0,12.371,10.029,22.4,22.4,22.4h190.72
	C363.731,503.893,373.76,493.865,373.76,481.493z"/>
<linearGradient id="SVGID_6_" gradientUnits="userSpaceOnUse" x1="276.7265" y1="38.1865" x2="190.7865" y2="124.1165" gradientTransform="matrix(1.0667 0 0 -1.0667 3.2667 557.5334)">
	<stop  offset="0" style="stop-color:#C2CECE;stop-opacity:0"/>
	<stop  offset="0.179" style="stop-color:#AFBCBC;stop-opacity:0.179"/>
	<stop  offset="1" style="stop-color:#5B6A6A"/>
</linearGradient>
<path style="fill:url(#SVGID_6_);" d="M271.837,459.473c-3.969-4.219-9.587-6.868-15.837-6.868c-12.018,0-21.76,9.742-21.76,21.76
	c0,6.25,2.65,11.869,6.869,15.837L262.908,512h61.456L271.837,459.473z"/>
<linearGradient id="SVGID_7_" gradientUnits="userSpaceOnUse" x1="227.1775" y1="87.7275" x2="248.7375" y2="66.1675" gradientTransform="matrix(1.0667 0 0 -1.0667 3.2667 557.5334)">
	<stop  offset="0" style="stop-color:#FFFFFF"/>
	<stop  offset="1" style="stop-color:#E8EFEE"/>
</linearGradient>
<circle style="fill:url(#SVGID_7_);" cx="256" cy="474.368" r="21.76"/>
<linearGradient id="SVGID_8_" gradientUnits="userSpaceOnUse" x1="243.9239" y1="70.9739" x2="234.2439" y2="80.6639" gradientTransform="matrix(1.0667 0 0 -1.0667 3.2667 557.5334)">
	<stop  offset="0" style="stop-color:#FFFFFF"/>
	<stop  offset="1" style="stop-color:#E8EFEE"/>
</linearGradient>
<circle style="fill:url(#SVGID_8_);" cx="256" cy="474.368" r="9.776"/>
<linearGradient id="SVGID_9_" gradientUnits="userSpaceOnUse" x1="361.749" y1="292.2414" x2="236.149" y2="341.0414" gradientTransform="matrix(1.0667 0 0 -1.0667 3.2667 557.5334)">
	<stop  offset="0" style="stop-color:#5B6A6A;stop-opacity:0"/>
	<stop  offset="1" style="stop-color:#303033"/>
</linearGradient>
<path style="fill:url(#SVGID_9_);" d="M206.201,158.849c-12.463,0-19.955,13.824-13.153,24.267l49.799,76.443L362.88,379.935
	V133.066L297.6,65.92h-83.2v92.929H206.201z"/>
<linearGradient id="SVGID_10_" gradientUnits="userSpaceOnUse" x1="236.9377" y1="436.2875" x2="236.9377" y2="303.9375" gradientTransform="matrix(1.0667 0 0 -1.0667 3.2667 557.5334)">
	<stop  offset="0" style="stop-color:#D63305"/>
	<stop  offset="0.366" style="stop-color:#CF3004"/>
	<stop  offset="0.899" style="stop-color:#BC2602"/>
	<stop  offset="1" style="stop-color:#B72401"/>
</linearGradient>
<path style="fill:url(#SVGID_10_);" d="M193.047,183.116l49.799,76.443c6.192,9.505,20.113,9.505,26.306,0l49.799-76.443
	c6.803-10.443-0.69-24.267-13.153-24.267H297.6V65.92h-83.2v92.929h-8.199C193.738,158.849,186.245,172.674,193.047,183.116z"/>
<g>
</g>
<g>
</g>
<g>
</g>
<g>
</g>
<g>
</g>
<g>
</g>
<g>
</g>
<g>
</g>
<g>
</g>
<g>
</g>
<g>
</g>
<g>
</g>
<g>
</g>
<g>
</g>
<g>
</g>
</svg>
