<?xml version="1.0" encoding="utf-8"?>
<!-- Generator: Adobe Illustrator 22.0.1, SVG Export Plug-In . SVG Version: 6.00 Build 0)  -->
<svg version="1.1" id="Layer_1" xmlns="http://www.w3.org/2000/svg" xmlns:xlink="http://www.w3.org/1999/xlink" x="0px" y="0px"
	 viewBox="0 0 255.5 216.3" style="enable-background:new 0 0 255.5 216.3;" xml:space="preserve">
<style type="text/css">
	.st0{fill:#78B7E8;}
</style>
<g>
	<path class="st0" d="M49.7,163.3c-0.6,8.7,1.5,17.9,6,26.3c5,9.4,13.1,18.3,24,26.2c0.6,0.4,1.2,0.6,1.9,0.6c0.7,0,1.4-0.2,2-0.7
		c1.1-0.8,1.5-2.4,0.9-3.6c-4.8-10.9-5-24-0.7-35.4c14.1,3.7,29,5.6,44.2,5.6c70.4,0,127.7-40.8,127.7-91.1S198.2,0,127.8,0
		C57.3-0.1,0,40.8,0,91C0,119.6,18.1,145.8,49.7,163.3z"/>
</g>
</svg>
