<?xml version="1.0" encoding="utf-8"?>
<!-- Designed by Vexels.com - 2016 All Rights Reserved - https://vexels.com/terms-and-conditions/  -->

<svg version="1.1" id="Layer_1" xmlns="http://www.w3.org/2000/svg" xmlns:xlink="http://www.w3.org/1999/xlink" x="0px" y="0px"
	 width="1200px" height="1200px" viewBox="0 0 1200 1200" enable-background="new 0 0 1200 1200" xml:space="preserve">
<g>
	<g id="Capa_3">
	</g>
	<g id="Layer_1_1_">
		<g>
			<path fill="#5B3C2C" d="M799.996,796.388c63.315-30.851,136.9-16.962,202.665-19.479c67.613-2.596,85.936,86.236,100.515,145.221
				c11.895,48.12-1.336,102.362-56.367,115.962c-83.645,20.672-188.61,14.164-228.086-55.866
				C793.704,937.844,761.293,826.842,799.996,796.388z"/>
			<path fill="#AD7B58" d="M943.925,805.155c23.102-0.545,46.308,0.659,68.258-0.619c49.523-2.894,64.243,61.951,75.776,104.969
				c8.633,32.168,1.859,68.393-30.198,82.516c-13.941-8.414-48.262-15.306-63.517-27.728c-18.492-15.05-33.208-24.435-44.462-44.398
				C927.866,880.988,906.319,830.325,943.925,805.155z"/>
			<path fill="#5B3C2C" d="M811.969,454.346c63.974,43.846,146.17,111.122,177.048,177.473
				c177.151,380.592-664.354,553.354-728.567,279.967c-34.869-148.471-54.965-348.072,134.03-395.471
				c73.907-18.535,176.191-97.454,265.41-62.886C697.107,467.844,772.801,461.66,811.969,454.346z"/>
			<path fill="#925C41" d="M751.399,498.123c45.082,32.193,103.058,81.518,125.055,129.921
				c126.123,277.615-463.17,399.033-509.569,199.931c-25.194-108.117-40.283-253.352,92.022-286.872
				c51.747-13.107,123.086-69.979,185.831-44.405C670.909,507.37,723.959,503.25,751.399,498.123z"/>
			<path fill="#5B3C2C" d="M358.935,1022.516c45.914,60.829,123.708,83.593,185.894,118.31
				c63.935,35.715,125.231-40.957,168.256-90.688c35.109-40.568,48.979-99.379,2.596-139.521
				c-70.528-61.027-174.952-106.29-247.417-58.138C422.345,882.988,336.569,974.126,358.935,1022.516z"/>
			<path fill="#5B3C2C" d="M910.047,511.993c51.556-21.531,109.2-7.166,161.41-6.162c53.684,1.042,64.134,72.244,72.976,119.628
				c7.217,38.669-5.747,81.024-49.943,89.278c-67.207,12.557-150.052,2.592-178.114-54.682
				C898.596,623.752,878,534.355,910.047,511.993z"/>
			<path fill="#AD7B58" d="M997.75,500.8c24.975,1.34,49.915,4.584,73.707,5.031c53.684,1.042,64.134,72.244,72.976,119.628
				c6.622,35.429-3.726,73.952-39.504,86.502c-14.335-10.248-50.791-20.557-66.205-35.233c-18.7-17.785-33.786-29.151-44.26-51.631
				C974.071,581.273,955.062,524.8,997.75,500.8z"/>
			<path fill="#925C41" d="M792.539,140.753c-7.797-41.787,19.033-81.851,59.933-89.487c40.897-7.634,80.377,20.052,88.178,61.84
				c7.801,41.787-19.03,81.851-59.93,89.485C839.821,210.226,800.34,182.542,792.539,140.753z"/>
			<path fill="#925C41" d="M207.967,178.926c-39.115,7.307-65.188,43.499-58.215,80.843c6.979,37.344,44.345,61.691,83.46,54.392
				c39.122-7.314,65.178-43.5,58.212-80.851C284.444,195.977,247.085,171.623,207.967,178.926z"/>
			<path fill="#4D382D" d="M186.614,217.619c-15.024,16.818-14.192,42.077,1.86,56.422c16.044,14.346,16.356-8.618,31.385-25.427
				c15.028-16.819,39.076-21.117,23.035-35.466C226.841,198.804,201.646,200.806,186.614,217.619z"/>
			<path fill="#925C41" d="M187.875,438.568c-27.897-149.365,116.93-301.725,323.48-340.304
				c206.549-38.578,396.607,51.233,424.504,200.6c27.9,149.366-116.928,301.726-323.477,340.306
				C405.833,677.746,215.775,587.936,187.875,438.568z"/>
			<path fill="#5B3C2C" d="M566.819,353.559c-117.02,21.851-200.738,99.311-186.971,173.008
				c13.758,73.686,119.771,115.713,236.809,93.86c117.02-21.85,200.741-99.307,186.98-173
				C789.876,373.73,683.86,331.703,566.819,353.559z"/>
			<path fill="#5B3C2C" d="M606.507,616.572c-48.308,9.021-100.567-26.825-96.063-2.686c4.509,24.15,54.665,59.519,102.965,50.503
				c48.315-9.023,84.607-58.655,80.1-82.805C689.001,557.446,654.808,607.562,606.507,616.572z"/>
			<path fill="#5B3C2C" d="M374.317,204.831c-21.969,26.129-26.462,63-34.982,55.848c-8.495-7.156-4.589-42.733,17.376-68.854
				c21.977-26.133,56.595-37.679,65.093-30.524C430.316,168.454,396.289,178.701,374.317,204.831z"/>
			<path fill="#5B3C2C" d="M695.946,142.347c29.926,16.436,47.415,49.202,52.772,39.469c5.354-9.747-11.137-41.514-41.059-57.952
				c-29.912-16.436-66.364-14.711-71.715-4.968C630.594,128.642,666.03,125.909,695.946,142.347z"/>
			<path fill="#4D382D" d="M893.734,93.644c18.088,13.457,22.33,38.378,9.473,55.644c-12.841,17.266-17.752-5.165-35.837-18.625
				c-18.084-13.46-42.511-12.872-29.664-30.144C850.565,83.26,875.646,80.18,893.734,93.644z"/>
			<path fill="#5B3C2C" d="M240.973,639.587c-55.857-1.469-104.434,32.734-152.763,52.515
				c-49.678,20.341-33.732,90.511-24.88,137.896c7.217,38.664,34.59,73.495,78.804,65.237
				c67.203-12.547,140.869-51.736,146.361-115.28C291.987,739.688,278.923,648.88,240.973,639.587z"/>
			<path fill="#AD7B58" d="M155.144,660.807c-22.805,10.262-44.895,22.28-66.934,31.295C38.532,712.446,54.478,782.619,63.33,830
				c6.611,35.429,30.156,67.628,68.063,66.421c9.667-14.735,39.954-37.512,49.03-56.761c11.006-23.329,20.985-39.377,22.631-64.123
				C206.271,727.315,203.615,667.781,155.144,660.807z"/>
			<path fill="#FFFFFF" d="M435.348,236.839c-33.97,15.653-47.812,58.07-30.899,94.727c16.908,36.657,58.142,53.678,92.107,38.013
				c33.956-15.662,47.795-58.075,30.886-94.734C510.539,238.193,469.3,221.173,435.348,236.839z"/>
			
				<ellipse transform="matrix(-0.9081 0.4187 -0.4187 -0.9081 1067.147 445.6502)" fill="#373435" cx="484.679" cy="339.907" rx="39.781" ry="42.93"/>
			<path fill="#FFFFFF" d="M623.073,196.955c-35.659,11.879-54.172,52.715-41.353,91.21c12.825,38.488,52.128,60.056,87.801,48.174
				c35.649-11.881,54.166-52.71,41.339-91.201C698.045,206.651,658.736,185.081,623.073,196.955z"/>
			<path fill="#373435" d="M648.841,267.961c-19.563,6.523-29.72,28.921-22.688,50.033c7.029,21.11,28.598,32.949,48.159,26.431
				c19.568-6.521,29.721-28.919,22.698-50.038C689.964,273.28,668.399,261.444,648.841,267.961z"/>
			<path fill="#373435" d="M604.964,583.206c-47.193,8.811-96.932-19.088-93.26,0.599c3.69,19.686,51.382,47.241,98.596,38.432
				c47.192-8.817,83.91-50.603,80.234-70.294C686.859,532.256,652.173,574.391,604.964,583.206z"/>
			
				<ellipse transform="matrix(-0.983 0.1835 -0.1835 -0.983 1242.3823 808.9443)" fill="#D09641" cx="583.763" cy="461.955" rx="210.636" ry="138.593"/>
			<path fill="#E7B940" d="M558.291,325.682c-105.302,19.667-182.614,87.671-183.178,157.07
				c10.089,21.591,22.153,41.642,32.767,52.437c42.861,43.604,120.592,52.028,151.935,24.825
				c64.582-56.064,104.023-23.593,170.086-51.705c30.128-12.829,55.036-56.578,57.939-96.621
				C765.801,343.63,666.642,305.444,558.291,325.682z"/>
			<path fill="#373435" d="M571.751,357.275c-67.182,12.539-112.405,72.221-101.003,133.303
				c11.41,61.08,75.121,100.42,142.304,87.878c67.185-12.555,112.405-72.236,100.995-133.311
				C702.645,384.062,638.934,344.726,571.751,357.275z"/>
			<path fill="#D09641" d="M612.293,608.486c-47.206,8.818-96.938-19.086-93.255,0.598c3.676,19.689,51.382,47.245,98.581,38.442
				c47.21-8.824,83.921-50.61,80.245-70.301C694.186,557.544,659.5,599.673,612.293,608.486z"/>
			<path fill="#AD7B58" d="M652.404,886.254c15.89,19.312,30.362,39.873,46.112,57.728c35.524,40.247-9.873,96.084-38.807,134.641
				c-21.633,28.816-57.009,47.244-90.447,29.361c-2.135-17.484-19.193-51.33-18.804-72.605c0.479-25.791-1.353-44.605,8.145-67.512
				C577.095,923.216,605.857,871.027,652.404,886.254z"/>
			<path fill="#2F7D9A" d="M518.178,239.729c-1.402,0.118-3.52,0.107-5.775,0.042c-3.375-0.094-6.204-0.277-7.652-0.388
				c-12.426-0.935-24.023-1.605-34.891-2.052c25.782,6.006,43.917,17.833,47.709,35.749c0.51,1.777,1.045,3.878,1.608,6.307
				c2.574,11.084,4.574,25.76,4.543,42.109c2.674-12.585,5.386-24.784,8.951-36.275l0.182-0.577l0.184-0.438
				c1.576-3.663,3.917-6.875,6.831-9.562l-0.021-0.021c4.911-4.552,11.388-7.528,18.085-8.691
				c6.657-1.158,13.725-0.546,19.872,2.073c3.608,1.546,6.912,3.765,9.646,6.72l0.244,0.269l0.442,0.572
				c7.245,9.628,13.935,20.227,20.705,31.185c-5.567-15.422-8.647-29.97-9.972-41.298c-0.251-2.07-0.439-4.098-0.57-6.049
				c-2.724-18.293,10.433-35.714,32.89-50.191c-10.1,4.101-20.818,8.654-32.234,13.758c-1.643,0.724-4.601,2.02-7.058,2.982
				c-1.938,0.768-3.86,1.463-5.379,1.875c-5.074,1.571-10.673,3.028-16.431,4.359c-5.793,1.35-11.654,2.55-17.264,3.626
				l-0.354,0.044c-6.102,0.949-12.139,1.82-17.5,2.451c-5.616,0.656-11.289,1.168-16.795,1.411v0.011H518.178z M512.98,219.082
				c1.274,0.042,2.531,0.042,3.502-0.045h0.439c4.699-0.199,10.071-0.685,15.701-1.342c5.889-0.688,11.342-1.46,16.32-2.239v-0.017
				c5.5-1.055,11.127-2.2,16.52-3.451c5.287-1.227,10.468-2.586,15.194-4.054l0.397-0.113c0.761-0.213,1.986-0.659,3.3-1.17
				c2.557-0.997,4.919-2.041,6.154-2.588c101.301-45.211,150.02-49.972,193.618-54.239c3.688-0.359,7.329-0.708,13.023-1.321
				c15.22-1.624,27.012-1.464,38.354-1.305c14.614,0.185,28.417,0.367,48.661-3.851l0,0c16.715-4.187,24.041,6.816,27.922,22.243
				c1.451,5.818,2.341,12.488,3.184,18.834c0.659,4.934,1.296,9.66,2.1,13.042l0.19,0.771l0.054,0.572
				c1.108,10.687-4.596,12.491-11.671,14.732c-1.006,0.326-2.136,0.639-2.156,0.668c-0.727,0.746-1.197,1.283-1.576,1.841
				c-0.489,0.712-0.925,1.56-1.526,2.84l-0.461,0.973l-0.647,0.852c-1.792,2.404-1.441,29.277-1.026,60.045l0.031,2.596
				c0.34,25.589-0.121,53.569-17.919,79.15c-17.429,25.061-51.094,46.574-116.389,58.598l-0.403,0.076
				c-99.792,14.54-136.843-45.54-169.927-99.198c-7.327-11.858-14.431-23.379-21.885-33.361c-0.661-0.637-1.466-1.152-2.372-1.544
				c-2.38-1.005-5.326-1.203-8.269-0.69c-2.896,0.505-5.58,1.681-7.457,3.417h-0.047c-0.683,0.638-1.257,1.367-1.649,2.184
				c-3.662,11.932-6.456,25.196-9.342,38.853c-13.021,61.676-27.61,130.739-126.534,150.784l-0.365,0.076
				c-65.485,10.727-104.427,1.838-129.321-15.868c-25.446-18.112-35.325-44.273-43.64-68.442l-0.836-2.448
				c-10.018-29.113-18.761-54.551-21.211-56.157l-0.959-0.63l-0.705-0.712c-1.07-1.069-1.774-1.736-2.37-2.178
				c-0.57-0.403-1.193-0.751-2.117-1.207l-2.295,0.086c-7.404,0.275-13.375,0.503-15.938-9.918l-0.173-0.696l-0.075-0.634
				c-0.385-3.528-1.391-8.169-2.439-13.036c-1.303-6.077-2.673-12.478-3.29-18.761c-1.573-15.677,1.554-28.426,18.343-30.289V260.8
				c20.708-2.861,33.726-7.73,47.5-12.874c10.57-3.963,21.576-8.072,36.548-11.712c2.061-0.492,7.344-1.824,12.737-3.187
				c42.461-10.709,89.901-22.675,200.505-14.328C507.987,218.819,510.947,219.026,512.98,219.082L512.98,219.082z M303.031,255.084
				l-5.121,1.252c-13.835,3.36-24.203,7.24-34.192,10.973c-14.922,5.576-29.048,10.853-51.88,14.01l-0.411,0.044
				c-0.733,0.073-0.598,3.436-0.173,7.699c0.481,4.858,1.763,10.823,2.985,16.487c0.574,2.701,1.141,5.334,1.629,7.872
				c2.44,0.123,5.117,0.595,8.081,2.045c2.149,1.048,3.693,1.915,5.287,3.078c1.526,1.135,2.932,2.397,4.806,4.287l-0.025,0.015
				c6.158,6.012,13.01,23.108,20.567,44.419c-4.926-23.436-6.205-48.839-1.913-72.909l0.117-0.682l0.237-0.748
				c3.506-10.695,18.974-23.783,42.787-34.687C298.13,257.167,300.534,256.114,303.031,255.084L303.031,255.084z M877.643,259.204
				c-0.096-22.783,0.553-41.322,4.313-49.08l-0.011-0.003c1.169-2.495,2.063-4.173,3.069-5.674c1.105-1.633,2.264-2.975,3.927-4.675
				c2.312-2.379,4.683-3.746,6.934-4.688c-0.399-2.567-0.758-5.244-1.126-7.981c-0.747-5.574-1.521-11.433-2.79-16.48
				c-1.04-4.138-2.043-7.335-2.763-7.158l-0.399,0.079c-22.546,4.737-37.606,4.537-53.546,4.328
				c-10.604-0.138-21.639-0.28-35.905,1.236c-1.347,0.145-3.078,0.322-5.057,0.522c2.63,0.127,5.19,0.304,7.67,0.511
				c26.107,2.236,45.085,9.322,51.997,18.217l0.436,0.547l0.378,0.667C867.002,210.883,874.385,235.358,877.643,259.204
				L877.643,259.204z M837.214,200.665c12.879,22.794,19.61,49.721,21.254,74.882c1.826,27.866-2.461,53.093-11.431,67.587
				c-7.274,11.74-18.117,20.588-30.766,27.072c-15.46,7.908-33.651,12.313-51.591,14.168h-0.113
				c-3.144,0.368-6.182,0.647-9.093,0.841c-50.411,3.397-83.064-16.652-103.677-42.564c-21.027-26.455-29.908-58.989-32.327-79.556
				c-0.229-2.008-0.399-3.841-0.513-5.479l-0.039-0.494l-0.081-0.522c-1.637-9.75,8.788-20.951,25.97-31.48
				c21.604-13.247,52.844-24.256,85.698-30.242c26.49-4.816,50.574-5.696,69.745-4.049
				C819.859,192.499,833.17,196.281,837.214,200.665L837.214,200.665z M304.411,277.052c17.405-7.972,40.323-15.259,66.97-19.669
				c32.989-5.476,66.134-5.67,90.918-0.51c19.745,4.107,33.351,11.12,35.11,20.839l0.138,0.817l0.057,0.193
				c0.524,1.803,0.981,3.582,1.371,5.284c4.681,20.207,7.309,53.844-3.562,85.858c-10.631,31.347-34.59,61.233-83.178,75.06
				c-3.031,0.861-5.97,1.629-8.803,2.28l-0.159,0.048c-17.515,4.315-36.134,6.302-53.372,4.087
				c-14.068-1.824-27.241-6.495-38.081-15.114c-13.328-10.609-25.882-32.877-33.562-59.688c-6.965-24.288-9.72-51.941-5.294-77.767
				C275.329,293.271,286.572,285.238,304.411,277.052z"/>
			<path fill="#25A1D9" d="M522.077,228.847c-3.007,0.235-9.247-0.152-11.854-0.346c-120.641-8.833-165.097,6.013-210.818,16.801
				c-34.657,8.173-47.88,19.113-85.376,24.146c-18.304,1.764-5.641,32.711-3.743,49.388c0.999,3.955,7.518,0.46,12.762,2.94
				c3.077,1.465,4.359,2.357,7.312,5.239c5.616,3.58,15.276,31.163,26.282,62.238c15.638,44.147,36.962,95.378,162.091,75.478
				c114.926-22.602,108.562-115.597,128.676-178.517c5.638-12.822,27.678-16.546,37.434-6.324
				c40.818,52.63,67.199,142.249,183.234,125.837c124.693-22.286,126.938-77.505,126.29-124.19
				c-0.438-32.853-0.96-61.979,3.08-67.19c1.792-3.678,2.685-4.943,5.074-7.328c4.069-4.051,11.421-2.902,10.992-6.944
				c-4.026-16.332-2.872-49.613-20.709-45.264c-37.053,7.564-53.297,1.592-88.761,5.264c-46.792,4.831-93.793,5.439-204.289,53.308
				c-2.38,1.034-8.109,3.445-11.024,4.207c-9.93,3.013-21.834,5.515-32.975,7.596C544.534,226.885,532.463,228.421,522.077,228.847
				L522.077,228.847z M851.74,195.066c29.667,50.185,29.31,119.803,10.106,149.909c-18.209,28.552-54.969,41.374-90.418,44.931
				c-122.693,13.986-154.917-92.44-157.726-132.882c-5.102-29.513,54.813-60.099,120.512-71.721
				C793.985,174.733,841.973,182.878,851.74,195.066L851.74,195.066z M266.685,293.877c4.958-14.676,47.288-38.073,107.215-47.72
				c65.889-10.602,132.925-1.466,138.393,27.988c11.431,38.988,18.12,149.736-102.221,176.792
				c-34.614,8.281-73.687,8.26-100.734-12.639C280.789,416.247,256.232,350.846,266.685,293.877z"/>
		</g>
	</g>
	<g id="Capa_2">
	</g>
</g>
</svg>
