<?xml version="1.0" ?><!DOCTYPE svg  PUBLIC '-//W3C//DTD SVG 1.1//EN'  'http://www.w3.org/Graphics/SVG/1.1/DTD/svg11.dtd'><svg height="100%" style="fill-rule:evenodd;clip-rule:evenodd;stroke-linejoin:round;stroke-miterlimit:1.41421;" version="1.1" viewBox="0 0 444 333" width="100%" xml:space="preserve" xmlns="http://www.w3.org/2000/svg" xmlns:serif="http://www.serif.com/" xmlns:xlink="http://www.w3.org/1999/xlink"><rect height="331.416" id="_17.-Managed" style="fill:none;" width="443.612" x="0.076" y="0.766"/><path d="M57.348,132.061c1.699,1.782 3.59,3.378 5.647,4.764c-13.492,25.447 -21.127,54.454 -21.127,85.231c0,2.908 0.068,5.801 0.21,8.662l-3.21,-0.162c-1.338,0 -2.658,0.082 -3.937,0.267c-0.152,-3.021 -0.226,-6.082 -0.226,-9.159c0,-32.409 8.196,-62.923 22.643,-89.603Zm334.605,2.629c13.583,26.047 21.251,55.623 21.251,86.974c0,2.569 -0.051,5.126 -0.169,7.696c-2.032,-0.471 -4.137,-0.737 -6.297,-0.76c0.091,-2.172 0.13,-4.354 0.13,-6.544c0,-30.256 -7.379,-58.802 -20.438,-83.926c1.962,-0.961 3.815,-2.112 5.523,-3.44Zm-129.227,-97.936c33.881,7.048 64.451,23.153 89.05,45.672c-1.752,1.341 -3.365,2.853 -4.79,4.507c-23.411,-21.26 -52.359,-36.526 -84.409,-43.351c0.203,-1.317 0.291,-2.662 0.291,-4.026l-0.142,-2.802Zm-61.351,-2.636c-0.344,1.764 -0.507,3.582 -0.507,5.438l0.075,1.494c-36.339,4.66 -69.352,20.031 -95.741,42.829c-1.751,-1.669 -3.681,-3.151 -5.778,-4.394c27.94,-24.42 63.158,-40.772 101.951,-45.367Z" id="Ellipse-5" style="fill:#0084ff;"/><rect height="39" id="Stroke" style="fill:#cce6ff;" width="7" x="228.868" y="76.556"/><g id="User"><path d="M187.796,176.859c0,31.619 19.226,65.546 42.927,65.546c23.711,0 42.936,-33.927 42.936,-65.546c0,-65.54 -85.863,-65.67 -85.863,0Z" id="Rectangle-1" style="fill:url(#_Linear1);fill-rule:nonzero;"/><path d="M209.975,233.306c6.15,5.68 13.224,9.099 20.748,9.099c7.523,0 14.595,-3.415 20.744,-9.089c4.115,3.405 7.942,6.22 11.434,6.22c26.398,2.387 49.266,19.919 57.92,45.411l4.784,14.1c1.376,4.057 0.712,8.526 -1.773,12.006c-2.493,3.482 -6.509,5.548 -10.791,5.548l-164.644,0c-4.274,0 -8.289,-2.066 -10.782,-5.548c-2.494,-3.48 -3.149,-7.949 -1.781,-12.006l4.784,-14.096c8.654,-25.496 31.522,-43.028 57.936,-45.415c3.493,0 7.313,-2.82 11.421,-6.23Z" id="Forma-1" style="fill:url(#_Linear2);fill-rule:nonzero;"/><circle cx="231.29" cy="168.297" id="Ellipse-2" r="37.017" style="fill:url(#_Linear3);"/></g><g id="Points"><ellipse cx="231.493" cy="38.712" id="Ellipse-1" rx="24.598" ry="24.156" style="fill:#0bbc00;"/><path d="M230.526,16.953c2.727,0.191 3.933,5.224 -0.687,5.367c-5.56,0.228 -10.763,3.579 -13.391,8.622c0,0 -0.633,1.076 -1.699,1.354c-2.151,0.563 -4.193,-1.871 -2.63,-4.612c3.702,-6.499 10.626,-10.894 18.407,-10.731Z" style="fill:#fff;fill-opacity:0.45098;fill-rule:nonzero;"/><path d="M212.109,34.568c1.589,0.094 2.598,1.579 2.535,3.374c-0.081,2.919 2.286,6.168 0.097,8.311c-2.203,2.156 -5.566,-1.475 -5.463,-8.129c0.027,-1.748 0.851,-3.609 2.831,-3.556Z" style="fill:#fff;fill-opacity:0.45098;fill-rule:nonzero;"/><ellipse cx="371.942" cy="107.616" id="Ellipse-1-copy" rx="24.598" ry="24.156" style="fill:#0bbc00;"/><path d="M370.972,85.856c2.673,0.184 4.05,5.216 -0.684,5.368c-5.556,0.221 -10.77,3.586 -13.39,8.621c0,0 -3.621,3.121 -4.891,-0.307c-0.706,-1.906 1.144,-4.199 2.808,-6.173c3.983,-4.725 9.707,-7.635 16.157,-7.509Z" style="fill:#fff;fill-opacity:0.45098;fill-rule:nonzero;"/><path d="M352.557,103.472c1.598,0.094 2.6,1.589 2.536,3.374c-0.081,2.919 2.287,6.168 0.097,8.311c-2.203,2.157 -5.566,-1.474 -5.462,-8.13c0.027,-1.797 0.976,-3.604 2.829,-3.555Z" style="fill:#fff;fill-opacity:0.45098;fill-rule:nonzero;"/><ellipse cx="81.522" cy="107.616" id="Ellipse-1-copy-2" rx="24.598" ry="24.156" style="fill:#0bbc00;"/><path d="M80.551,85.856c2.779,0.192 3.958,5.219 -0.684,5.368c-5.548,0.22 -10.763,3.58 -13.39,8.622c0,0 -0.634,1.076 -1.699,1.354c-2.152,0.563 -4.194,-1.866 -2.631,-4.612c3.702,-6.502 10.665,-10.884 18.404,-10.732Z" style="fill:#fff;fill-opacity:0.45098;fill-rule:nonzero;"/><path d="M62.138,103.472c1.598,0.095 2.597,1.595 2.535,3.374c-0.081,2.918 2.286,6.168 0.097,8.311c-2.204,2.157 -5.568,-1.474 -5.463,-8.13c0.028,-1.8 0.978,-3.605 2.831,-3.555Z" style="fill:#fff;fill-opacity:0.45098;fill-rule:nonzero;"/><ellipse cx="39.466" cy="260.472" id="Ellipse-1-copy-3" rx="24.598" ry="24.156" style="fill:#0bbc00;"/><path d="M38.499,238.713c2.727,0.191 3.933,5.224 -0.687,5.367c-5.55,0.227 -10.763,3.579 -13.391,8.622c0,0 -0.633,1.076 -1.698,1.354c-2.152,0.563 -4.193,-1.871 -2.631,-4.612c3.707,-6.507 10.626,-10.894 18.407,-10.731Z" style="fill:#fff;fill-opacity:0.45098;fill-rule:nonzero;"/><path d="M20.083,256.328c1.597,0.095 2.597,1.594 2.534,3.374c-0.073,2.647 1.84,5.389 0.568,7.691c-1.55,2.809 -6.055,0.299 -5.934,-7.51c0.028,-1.798 0.978,-3.604 2.832,-3.555Z" style="fill:#fff;fill-opacity:0.45098;fill-rule:nonzero;"/><ellipse cx="405.269" cy="260.472" id="Ellipse-1-copy-4" rx="24.598" ry="24.156" style="fill:#0bbc00;"/><path d="M404.302,238.713c2.845,0.199 3.676,5.232 -0.687,5.367c-5.55,0.227 -10.763,3.579 -13.391,8.622c0,0 -0.633,1.076 -1.698,1.354c-2.152,0.563 -4.193,-1.871 -2.631,-4.612c3.707,-6.507 10.626,-10.894 18.407,-10.731Z" style="fill:#fff;fill-opacity:0.45098;fill-rule:nonzero;"/><path d="M385.886,256.328c1.597,0.095 2.597,1.594 2.534,3.374c-0.073,2.647 1.84,5.389 0.568,7.691c-1.55,2.809 -6.057,0.301 -5.933,-7.51c0.028,-1.8 0.977,-3.604 2.831,-3.555Z" style="fill:#fff;fill-opacity:0.45098;fill-rule:nonzero;"/></g><defs><linearGradient gradientTransform="matrix(1.77191e-14,289.375,-289.375,1.77191e-14,210.403,134.629)" gradientUnits="userSpaceOnUse" id="_Linear1" x1="0" x2="1" y1="0" y2="0"><stop offset="0" style="stop-color:#70d1ff;stop-opacity:1"/><stop offset="1" style="stop-color:#009dff;stop-opacity:1"/></linearGradient><linearGradient gradientTransform="matrix(5.10481e-15,-83.3678,83.3678,5.10481e-15,204.265,303.904)" gradientUnits="userSpaceOnUse" id="_Linear2" x1="0" x2="1" y1="0" y2="0"><stop offset="0" style="stop-color:#70d1ff;stop-opacity:1"/><stop offset="1" style="stop-color:#009dff;stop-opacity:1"/></linearGradient><linearGradient gradientTransform="matrix(-1.67322,62.0147,-62.0147,-1.67322,233.892,130.826)" gradientUnits="userSpaceOnUse" id="_Linear3" x1="0" x2="1" y1="0" y2="0"><stop offset="0" style="stop-color:#fff;stop-opacity:0.458824"/><stop offset="1" style="stop-color:#fff;stop-opacity:0"/></linearGradient></defs></svg>