<?xml version="1.0" ?><!DOCTYPE svg  PUBLIC '-//W3C//DTD SVG 1.1//EN'  'http://www.w3.org/Graphics/SVG/1.1/DTD/svg11.dtd'><svg height="100%" style="fill-rule:evenodd;clip-rule:evenodd;stroke-linejoin:round;stroke-miterlimit:1.41421;" version="1.1" viewBox="0 0 419 384" width="100%" xml:space="preserve" xmlns="http://www.w3.org/2000/svg" xmlns:serif="http://www.serif.com/" xmlns:xlink="http://www.w3.org/1999/xlink"><rect height="382.296" id="_5.-Shared-Cloud" style="fill:none;" width="418.637" x="0.116" y="0.782"/><g id="Monitor"><g id="Rounded-Rectangle-1"><path d="M380.646,237.796c0,-8.279 -6.721,-15 -15,-15l-116.75,0c-8.279,0 -15,6.721 -15,15l0,67.094c0,8.278 6.721,15 15,15l116.75,0c8.279,0 15,-6.722 15,-15l0,-67.094Z" style="fill:url(#_Linear1);"/><path d="M365.979,211.798l0.332,0.006l0.333,0.011l0.331,0.014l0.33,0.019l0.33,0.023l0.329,0.027l0.327,0.031l0.328,0.036l0.324,0.039l0.326,0.044l0.325,0.047l0.319,0.051l0.323,0.056l0.321,0.059l0.318,0.063l0.316,0.067l0.318,0.072l0.315,0.074l0.31,0.078l0.313,0.083l0.311,0.086l0.309,0.09l0.307,0.094l0.305,0.097l0.304,0.1l0.306,0.106l0.298,0.108l0.298,0.11l0.3,0.117l0.292,0.118l0.291,0.12l0.293,0.127l0.291,0.129l0.285,0.131l0.287,0.136l0.284,0.139l0.276,0.14l0.286,0.148l0.278,0.149l0.275,0.152l0.271,0.154l0.271,0.157l0.273,0.164l0.265,0.164l0.262,0.165l0.265,0.173l0.263,0.175l0.254,0.174l0.258,0.182l0.248,0.179l0.253,0.186l0.249,0.189l0.247,0.191l0.244,0.194l0.241,0.196l0.245,0.205l0.228,0.196l0.232,0.203l0.243,0.219l0.226,0.208l0.217,0.204l0.227,0.219l0.224,0.221l0.221,0.224l0.218,0.226l0.208,0.221l0.212,0.23l0.208,0.232l0.199,0.227l0.202,0.236l0.206,0.246l0.203,0.249l0.192,0.242l0.182,0.235l0.186,0.245l0.19,0.256l0.186,0.258l0.182,0.26l0.173,0.252l0.169,0.254l0.179,0.275l0.168,0.267l0.159,0.258l0.162,0.269l0.158,0.272l0.155,0.272l0.151,0.275l0.148,0.275l0.144,0.277l0.146,0.289l0.142,0.291l0.133,0.28l0.13,0.282l0.131,0.294l0.127,0.296l0.118,0.285l0.115,0.286l0.121,0.31l0.112,0.3l0.104,0.289l0.109,0.314l0.1,0.303l0.096,0.303l0.093,0.305l0.089,0.305l0.089,0.318l0.08,0.307l0.081,0.32l0.075,0.32l0.07,0.309l0.065,0.308l0.064,0.322l0.06,0.323l0.056,0.323l0.051,0.323l0.046,0.311l0.045,0.337l0.04,0.338l0.034,0.311l0.031,0.324l0.028,0.338l0.023,0.324l0.019,0.338l0.014,0.325l0.011,0.324l0.006,0.351l0.002,0.298l0,67.146l-0.002,0.298l-0.006,0.35l-0.011,0.325l-0.014,0.324l-0.019,0.338l-0.023,0.324l-0.028,0.338l-0.031,0.325l-0.034,0.311l-0.04,0.337l-0.045,0.337l-0.046,0.311l-0.051,0.323l-0.056,0.323l-0.06,0.323l-0.064,0.322l-0.065,0.309l-0.07,0.308l-0.075,0.321l-0.081,0.32l-0.08,0.306l-0.089,0.319l-0.089,0.305l-0.093,0.304l-0.096,0.303l-0.1,0.303l-0.109,0.314l-0.104,0.289l-0.112,0.3l-0.121,0.311l-0.115,0.286l-0.118,0.285l-0.127,0.295l-0.131,0.295l-0.13,0.281l-0.133,0.281l-0.142,0.291l-0.146,0.289l-0.144,0.276l-0.148,0.276l-0.151,0.274l-0.155,0.273l-0.158,0.271l-0.162,0.27l-0.159,0.258l-0.168,0.266l-0.179,0.275l-0.169,0.254l-0.173,0.252l-0.182,0.26l-0.186,0.258l-0.19,0.257l-0.186,0.245l-0.182,0.235l-0.192,0.242l-0.203,0.248l-0.206,0.247l-0.202,0.236l-0.199,0.226l-0.208,0.232l-0.212,0.23l-0.208,0.221l-0.218,0.226l-0.221,0.224l-0.224,0.222l-0.227,0.219l-0.217,0.203l-0.226,0.209l-0.243,0.218l-0.232,0.203l-0.228,0.196l-0.245,0.205l-0.241,0.196l-0.244,0.194l-0.247,0.192l-0.249,0.189l-0.253,0.186l-0.248,0.179l-0.258,0.181l-0.254,0.174l-0.263,0.176l-0.265,0.172l-0.262,0.166l-0.265,0.163l-0.273,0.164l-0.27,0.157l-0.273,0.155l-0.275,0.152l-0.277,0.148l-0.286,0.149l-0.276,0.139l-0.284,0.139l-0.287,0.136l-0.285,0.131l-0.291,0.13l-0.292,0.126l-0.292,0.121l-0.293,0.118l-0.299,0.116l-0.298,0.111l-0.298,0.107l-0.306,0.106l-0.304,0.101l-0.305,0.097l-0.307,0.093l-0.309,0.09l-0.311,0.087l-0.313,0.082l-0.31,0.078l-0.315,0.075l-0.318,0.071l-0.316,0.067l-0.318,0.063l-0.321,0.06l-0.323,0.055l-0.319,0.051l-0.325,0.048l-0.326,0.043l-0.324,0.04l-0.328,0.035l-0.327,0.031l-0.329,0.027l-0.33,0.023l-0.33,0.019l-0.331,0.015l-0.333,0.01l-0.332,0.007l-0.298,0.002l-116.82,0l-0.298,-0.002l-0.333,-0.007l-0.332,-0.01l-0.332,-0.015l-0.329,-0.019l-0.33,-0.023l-0.329,-0.027l-0.326,-0.031l-0.328,-0.035l-0.327,-0.04l-0.325,-0.043l-0.322,-0.048l-0.323,-0.051l-0.321,-0.055l-0.319,-0.06l-0.321,-0.063l-0.317,-0.067l-0.316,-0.071l-0.315,-0.075l-0.312,-0.078l-0.311,-0.082l-0.311,-0.087l-0.309,-0.09l-0.307,-0.093l-0.305,-0.097l-0.306,-0.102l-0.301,-0.104l-0.299,-0.107l-0.3,-0.112l-0.297,-0.115l-0.296,-0.119l-0.293,-0.122l-0.29,-0.125l-0.289,-0.129l-0.29,-0.133l-0.284,-0.135l-0.284,-0.139l-0.282,-0.142l-0.277,-0.144l-0.28,-0.15l-0.275,-0.152l-0.273,-0.155l-0.273,-0.159l-0.267,-0.16l-0.268,-0.165l-0.265,-0.168l-0.262,-0.17l-0.26,-0.174l-0.257,-0.176l-0.255,-0.179l-0.255,-0.184l-0.252,-0.186l-0.246,-0.186l-0.247,-0.192l-0.244,-0.194l-0.241,-0.196l-0.238,-0.199l-0.239,-0.205l-0.235,-0.206l-0.229,-0.206l-0.23,-0.211l-0.227,-0.214l-0.22,-0.212l-0.224,-0.222l-0.221,-0.224l-0.211,-0.218l-0.216,-0.229l-0.211,-0.23l-0.205,-0.228l-0.209,-0.238l-0.202,-0.237l-0.196,-0.234l-0.199,-0.244l-0.196,-0.246l-0.189,-0.244l-0.189,-0.249l-0.186,-0.252l-0.18,-0.249l-0.182,-0.26l-0.176,-0.257l-0.173,-0.258l-0.172,-0.266l-0.165,-0.261l-0.166,-0.268l-0.161,-0.27l-0.158,-0.271l-0.155,-0.273l-0.154,-0.28l-0.148,-0.275l-0.144,-0.277l-0.143,-0.283l-0.14,-0.286l-0.135,-0.286l-0.13,-0.281l-0.128,-0.289l-0.128,-0.296l-0.123,-0.296l-0.117,-0.292l-0.114,-0.293l-0.112,-0.3l-0.11,-0.307l-0.104,-0.302l-0.099,-0.296l-0.098,-0.31l-0.093,-0.304l-0.091,-0.312l-0.086,-0.312l-0.081,-0.306l-0.079,-0.314l-0.075,-0.314l-0.072,-0.321l-0.066,-0.316l-0.064,-0.322l-0.059,-0.316l-0.055,-0.316l-0.052,-0.33l-0.048,-0.324l-0.043,-0.324l-0.039,-0.324l-0.035,-0.324l-0.032,-0.331l-0.027,-0.332l-0.022,-0.324l-0.02,-0.331l-0.014,-0.331l-0.011,-0.331l-0.006,-0.338l-0.002,-0.298l0,-67.159l0.002,-0.298l0.006,-0.337l0.011,-0.331l0.014,-0.331l0.02,-0.332l0.022,-0.324l0.027,-0.331l0.032,-0.331l0.035,-0.325l0.039,-0.324l0.043,-0.324l0.048,-0.324l0.052,-0.33l0.055,-0.316l0.059,-0.316l0.064,-0.322l0.066,-0.315l0.072,-0.322l0.075,-0.314l0.079,-0.313l0.081,-0.307l0.086,-0.312l0.091,-0.311l0.093,-0.305l0.098,-0.309l0.099,-0.297l0.104,-0.302l0.11,-0.307l0.112,-0.3l0.114,-0.293l0.117,-0.291l0.123,-0.297l0.128,-0.296l0.128,-0.288l0.13,-0.282l0.135,-0.286l0.14,-0.285l0.143,-0.284l0.144,-0.277l0.148,-0.275l0.154,-0.28l0.155,-0.272l0.158,-0.272l0.161,-0.269l0.166,-0.268l0.165,-0.262l0.172,-0.265l0.173,-0.259l0.176,-0.257l0.182,-0.259l0.18,-0.249l0.186,-0.252l0.189,-0.25l0.189,-0.244l0.196,-0.246l0.199,-0.244l0.196,-0.234l0.202,-0.236l0.209,-0.239l0.205,-0.228l0.211,-0.23l0.216,-0.228l0.211,-0.219l0.221,-0.224l0.224,-0.221l0.22,-0.213l0.227,-0.213l0.23,-0.212l0.229,-0.206l0.235,-0.206l0.239,-0.205l0.239,-0.199l0.24,-0.196l0.244,-0.194l0.247,-0.191l0.246,-0.187l0.252,-0.186l0.255,-0.184l0.255,-0.179l0.257,-0.176l0.26,-0.173l0.262,-0.171l0.265,-0.167l0.268,-0.166l0.268,-0.16l0.272,-0.159l0.272,-0.154l0.275,-0.152l0.281,-0.15l0.277,-0.144l0.282,-0.143l0.284,-0.139l0.284,-0.135l0.29,-0.133l0.289,-0.128l0.29,-0.126l0.293,-0.121l0.295,-0.119l0.298,-0.116l0.3,-0.111l0.299,-0.108l0.301,-0.104l0.306,-0.101l0.305,-0.097l0.307,-0.094l0.309,-0.09l0.311,-0.086l0.311,-0.082l0.312,-0.079l0.315,-0.074l0.316,-0.071l0.317,-0.068l0.321,-0.063l0.319,-0.059l0.321,-0.056l0.323,-0.051l0.322,-0.047l0.325,-0.044l0.327,-0.039l0.328,-0.036l0.326,-0.031l0.329,-0.027l0.33,-0.023l0.329,-0.019l0.332,-0.014l0.332,-0.011l0.333,-0.006l0.298,-0.002l116.82,0l0.298,0.002Zm-117.083,10.998l-0.194,0.001l-0.193,0.004l-0.192,0.006l-0.192,0.008l-0.192,0.011l-0.19,0.014l-0.19,0.015l-0.19,0.018l-0.188,0.021l-0.188,0.022l-0.188,0.025l-0.186,0.028l-0.186,0.029l-0.185,0.032l-0.184,0.034l-0.183,0.037l-0.183,0.038l-0.182,0.041l-0.181,0.043l-0.18,0.045l-0.179,0.048l-0.178,0.049l-0.178,0.052l-0.176,0.054l-0.176,0.056l-0.175,0.057l-0.174,0.061l-0.172,0.062l-0.172,0.064l-0.171,0.066l-0.17,0.068l-0.168,0.07l-0.168,0.073l-0.167,0.074l-0.165,0.076l-0.165,0.078l-0.163,0.08l-0.162,0.082l-0.161,0.084l-0.16,0.085l-0.159,0.088l-0.158,0.089l-0.156,0.092l-0.156,0.093l-0.154,0.095l-0.152,0.096l-0.152,0.099l-0.15,0.1l-0.149,0.102l-0.148,0.104l-0.146,0.105l-0.145,0.107l-0.144,0.109l-0.142,0.111l-0.141,0.112l-0.14,0.114l-0.138,0.115l-0.137,0.117l-0.136,0.119l-0.133,0.12l-0.133,0.122l-0.131,0.124l-0.129,0.125l-0.129,0.126l-0.126,0.128l-0.125,0.13l-0.123,0.131l-0.122,0.132l-0.121,0.134l-0.118,0.136l-0.117,0.137l-0.116,0.138l-0.114,0.139l-0.112,0.141l-0.111,0.143l-0.108,0.143l-0.108,0.146l-0.105,0.146l-0.104,0.148l-0.102,0.149l-0.1,0.15l-0.099,0.151l-0.096,0.153l-0.095,0.154l-0.093,0.155l-0.091,0.157l-0.09,0.158l-0.087,0.158l-0.086,0.16l-0.084,0.161l-0.082,0.163l-0.08,0.163l-0.078,0.165l-0.076,0.165l-0.074,0.167l-0.072,0.167l-0.071,0.169l-0.068,0.17l-0.066,0.171l-0.064,0.172l-0.062,0.172l-0.06,0.174l-0.058,0.175l-0.056,0.175l-0.054,0.177l-0.052,0.177l-0.049,0.179l-0.047,0.179l-0.046,0.18l-0.043,0.181l-0.04,0.182l-0.039,0.182l-0.036,0.184l-0.035,0.184l-0.031,0.185l-0.03,0.186l-0.027,0.186l-0.025,0.187l-0.023,0.188l-0.02,0.189l-0.019,0.189l-0.015,0.19l-0.014,0.191l-0.01,0.191l-0.009,0.192l-0.006,0.193l-0.004,0.193l-0.001,0.194l0,67.094l0.001,0.193l0.004,0.193l0.006,0.193l0.009,0.192l0.01,0.191l0.014,0.191l0.015,0.19l0.019,0.189l0.02,0.189l0.023,0.188l0.025,0.187l0.027,0.187l0.03,0.185l0.031,0.185l0.035,0.185l0.036,0.183l0.039,0.183l0.04,0.181l0.043,0.181l0.046,0.18l0.047,0.18l0.049,0.178l0.052,0.178l0.054,0.176l0.056,0.176l0.058,0.174l0.06,0.174l0.062,0.173l0.064,0.172l0.066,0.17l0.068,0.17l0.071,0.169l0.072,0.168l0.074,0.166l0.076,0.166l0.078,0.164l0.08,0.164l0.082,0.162l0.084,0.161l0.086,0.16l0.087,0.159l0.09,0.157l0.091,0.157l0.093,0.155l0.095,0.154l0.096,0.153l0.099,0.152l0.1,0.15l0.102,0.149l0.104,0.147l0.105,0.147l0.108,0.145l0.108,0.144l0.111,0.142l0.112,0.141l0.114,0.14l0.116,0.138l0.117,0.137l0.118,0.135l0.121,0.134l0.122,0.133l0.123,0.131l0.125,0.129l0.126,0.128l0.129,0.127l0.129,0.125l0.131,0.123l0.133,0.122l0.133,0.12l0.136,0.119l0.137,0.117l0.138,0.116l0.14,0.113l0.141,0.113l0.142,0.11l0.144,0.109l0.145,0.107l0.146,0.106l0.148,0.103l0.149,0.102l0.15,0.101l0.152,0.098l0.152,0.097l0.154,0.095l0.156,0.093l0.156,0.091l0.158,0.089l0.159,0.088l0.16,0.086l0.161,0.084l0.162,0.081l0.163,0.08l0.165,0.079l0.165,0.076l0.167,0.074l0.168,0.072l0.168,0.07l0.17,0.068l0.171,0.067l0.172,0.064l0.172,0.062l0.174,0.06l0.175,0.058l0.176,0.056l0.176,0.053l0.178,0.052l0.178,0.05l0.179,0.047l0.18,0.045l0.181,0.043l0.182,0.041l0.183,0.039l0.183,0.036l0.184,0.034l0.185,0.032l0.186,0.03l0.186,0.027l0.188,0.025l0.188,0.023l0.188,0.02l0.19,0.018l0.19,0.016l0.19,0.013l0.192,0.011l0.192,0.009l0.192,0.006l0.193,0.003l0.194,0.002l116.75,0l0.194,-0.002l0.193,-0.003l0.192,-0.006l0.192,-0.009l0.192,-0.011l0.19,-0.013l0.19,-0.016l0.19,-0.018l0.188,-0.02l0.188,-0.023l0.188,-0.025l0.186,-0.027l0.186,-0.03l0.185,-0.032l0.184,-0.034l0.183,-0.036l0.183,-0.039l0.182,-0.041l0.181,-0.043l0.18,-0.045l0.179,-0.047l0.178,-0.05l0.178,-0.052l0.176,-0.053l0.176,-0.056l0.175,-0.058l0.174,-0.06l0.172,-0.062l0.172,-0.064l0.171,-0.067l0.17,-0.068l0.168,-0.07l0.168,-0.072l0.167,-0.074l0.165,-0.076l0.165,-0.079l0.163,-0.08l0.162,-0.081l0.161,-0.084l0.16,-0.086l0.159,-0.088l0.158,-0.089l0.156,-0.091l0.156,-0.093l0.154,-0.095l0.152,-0.097l0.152,-0.098l0.15,-0.101l0.149,-0.102l0.148,-0.103l0.146,-0.106l0.145,-0.107l0.144,-0.109l0.142,-0.11l0.141,-0.113l0.14,-0.113l0.138,-0.116l0.137,-0.117l0.136,-0.119l0.133,-0.12l0.133,-0.122l0.131,-0.123l0.129,-0.125l0.129,-0.127l0.126,-0.128l0.125,-0.129l0.123,-0.131l0.122,-0.133l0.121,-0.134l0.118,-0.135l0.117,-0.137l0.116,-0.138l0.114,-0.14l0.112,-0.141l0.111,-0.142l0.108,-0.144l0.108,-0.145l0.105,-0.147l0.104,-0.147l0.102,-0.149l0.1,-0.15l0.099,-0.152l0.096,-0.153l0.095,-0.154l0.093,-0.155l0.091,-0.157l0.09,-0.157l0.087,-0.159l0.086,-0.16l0.084,-0.161l0.082,-0.162l0.08,-0.164l0.078,-0.164l0.076,-0.166l0.074,-0.166l0.072,-0.168l0.071,-0.169l0.068,-0.17l0.066,-0.17l0.064,-0.172l0.062,-0.173l0.06,-0.174l0.058,-0.174l0.056,-0.176l0.054,-0.176l0.052,-0.178l0.049,-0.178l0.047,-0.18l0.046,-0.18l0.043,-0.181l0.04,-0.181l0.039,-0.183l0.036,-0.183l0.035,-0.185l0.031,-0.185l0.03,-0.185l0.027,-0.187l0.025,-0.187l0.023,-0.188l0.02,-0.189l0.019,-0.189l0.015,-0.19l0.014,-0.191l0.01,-0.191l0.009,-0.192l0.006,-0.193l0.004,-0.193l0.001,-0.193l0,-67.094l-0.001,-0.194l-0.004,-0.193l-0.006,-0.193l-0.009,-0.192l-0.01,-0.191l-0.014,-0.191l-0.015,-0.19l-0.019,-0.189l-0.02,-0.189l-0.023,-0.188l-0.025,-0.187l-0.027,-0.186l-0.03,-0.186l-0.031,-0.185l-0.035,-0.184l-0.036,-0.184l-0.039,-0.182l-0.04,-0.182l-0.043,-0.181l-0.046,-0.18l-0.047,-0.179l-0.049,-0.179l-0.052,-0.177l-0.054,-0.177l-0.056,-0.175l-0.058,-0.175l-0.06,-0.174l-0.062,-0.172l-0.064,-0.172l-0.066,-0.171l-0.068,-0.17l-0.071,-0.169l-0.072,-0.167l-0.074,-0.167l-0.076,-0.165l-0.078,-0.165l-0.08,-0.163l-0.082,-0.163l-0.084,-0.161l-0.086,-0.16l-0.087,-0.158l-0.09,-0.158l-0.091,-0.157l-0.093,-0.155l-0.095,-0.154l-0.096,-0.153l-0.099,-0.151l-0.1,-0.15l-0.102,-0.149l-0.104,-0.148l-0.105,-0.146l-0.108,-0.146l-0.108,-0.143l-0.111,-0.143l-0.112,-0.141l-0.114,-0.139l-0.116,-0.138l-0.117,-0.137l-0.118,-0.136l-0.121,-0.134l-0.122,-0.132l-0.123,-0.131l-0.125,-0.13l-0.126,-0.128l-0.129,-0.126l-0.129,-0.125l-0.131,-0.124l-0.133,-0.122l-0.133,-0.12l-0.136,-0.119l-0.137,-0.117l-0.138,-0.115l-0.14,-0.114l-0.141,-0.112l-0.142,-0.111l-0.144,-0.109l-0.145,-0.107l-0.146,-0.105l-0.148,-0.104l-0.149,-0.102l-0.15,-0.1l-0.152,-0.099l-0.152,-0.096l-0.154,-0.095l-0.156,-0.093l-0.156,-0.092l-0.158,-0.089l-0.159,-0.088l-0.16,-0.085l-0.161,-0.084l-0.162,-0.082l-0.163,-0.08l-0.165,-0.078l-0.165,-0.076l-0.167,-0.074l-0.168,-0.073l-0.168,-0.07l-0.17,-0.068l-0.171,-0.066l-0.172,-0.064l-0.172,-0.062l-0.174,-0.061l-0.175,-0.057l-0.176,-0.056l-0.176,-0.054l-0.178,-0.052l-0.178,-0.049l-0.179,-0.048l-0.18,-0.045l-0.181,-0.043l-0.182,-0.041l-0.183,-0.038l-0.183,-0.037l-0.184,-0.034l-0.185,-0.032l-0.186,-0.029l-0.186,-0.028l-0.188,-0.025l-0.188,-0.022l-0.188,-0.021l-0.19,-0.018l-0.19,-0.015l-0.19,-0.014l-0.192,-0.011l-0.192,-0.008l-0.192,-0.006l-0.193,-0.004l-0.194,-0.001l-116.75,0Z" style="fill:#fff;"/></g><path d="M367.709,243.358c0,-6.071 -4.929,-11 -11,-11l-101.594,0c-4.416,0 -8,3.585 -8,8l0,58.938l120.594,0l0,-55.938Z" id="Rounded-Rectangle-2" style="fill:url(#_Linear2);"/><path d="M318.459,311.093c0,-1.751 -1.422,-3.172 -3.172,-3.172l-15.344,0c-1.751,0 -3.172,1.421 -3.172,3.172c0,1.75 1.421,3.172 3.172,3.172l15.344,0c1.75,0 3.172,-1.422 3.172,-3.172Z" id="Rounded-Rectangle-3" style="fill:#e5f1ff;"/><path d="M291.493,319.539l31.185,0l0,17.004c0,0 -0.056,5.197 8.457,9.033c-3.919,0.89 -29.599,0 -29.599,0l0,-0.131c-0.307,0.019 -14.622,0.877 -18.5,0c8.513,-3.816 8.457,-8.988 8.457,-8.988l0,-16.918Z" id="Shape-2-copy" style="fill:url(#_Linear3);"/><path d="M331.677,347.803c0,-2.195 -1.781,-3.976 -3.975,-3.976l-41.205,0c-2.195,0 -3.976,1.781 -3.976,3.976l0,0.017c0,2.194 1.781,3.976 3.976,3.976l41.205,0c2.194,0 3.975,-1.782 3.975,-3.976l0,-0.017Z" id="Rounded-Rectangle-5" style="fill:#cce6ff;"/></g><g id="Monitor1"><path d="M180.047,243.266c0,-8.279 -6.721,-15 -15,-15l-116.771,0c-8.279,0 -15,6.721 -15,15l0,67.091c0,8.279 6.721,15 15,15l116.771,0c8.279,0 15,-6.721 15,-15l0,-67.091Z" id="Rounded-Rectangle-1-copy" style="fill:#cce6ff;fill-opacity:0.258824;"/><g id="Rounded-Rectangle-11"><path d="M175.659,237.793c0,-8.279 -6.721,-15 -15,-15l-116.771,0c-8.278,0 -15,6.721 -15,15l0,67.091c0,8.279 6.722,15 15,15l116.771,0c8.279,0 15,-6.721 15,-15l0,-67.091Z" style="fill:url(#_Linear4);"/><path d="M160.994,211.795l0.332,0.006l0.331,0.011l0.331,0.015l0.331,0.018l0.33,0.023l0.328,0.028l0.328,0.031l0.327,0.035l0.326,0.04l0.324,0.043l0.324,0.047l0.322,0.052l0.322,0.055l0.32,0.059l0.319,0.064l0.317,0.067l0.316,0.071l0.315,0.075l0.312,0.078l0.312,0.082l0.312,0.087l0.309,0.09l0.305,0.093l0.305,0.097l0.305,0.101l0.302,0.104l0.299,0.108l0.302,0.112l0.295,0.115l0.295,0.118l0.294,0.123l0.291,0.125l0.291,0.13l0.286,0.131l0.284,0.135l0.285,0.139l0.282,0.143l0.277,0.144l0.28,0.15l0.278,0.153l0.27,0.153l0.269,0.157l0.274,0.164l0.267,0.165l0.263,0.166l0.259,0.169l0.263,0.175l0.26,0.179l0.252,0.176l0.255,0.183l0.252,0.187l0.246,0.187l0.247,0.191l0.247,0.197l0.241,0.197l0.235,0.195l0.238,0.204l0.236,0.207l0.229,0.206l0.23,0.211l0.227,0.214l0.223,0.216l0.221,0.218l0.218,0.22l0.217,0.226l0.212,0.224l0.212,0.231l0.209,0.232l0.205,0.234l0.202,0.236l0.196,0.235l0.199,0.244l0.196,0.246l0.189,0.244l0.19,0.25l0.185,0.251l0.183,0.254l0.179,0.255l0.176,0.257l0.176,0.264l0.169,0.259l0.165,0.262l0.166,0.268l0.161,0.27l0.159,0.271l0.154,0.273l0.155,0.28l0.147,0.275l0.144,0.277l0.143,0.283l0.14,0.286l0.135,0.286l0.13,0.281l0.131,0.295l0.125,0.29l0.121,0.29l0.12,0.298l0.116,0.299l0.111,0.3l0.106,0.295l0.105,0.302l0.102,0.309l0.097,0.303l0.093,0.305l0.09,0.311l0.087,0.312l0.082,0.313l0.077,0.307l0.075,0.314l0.072,0.322l0.067,0.315l0.063,0.315l0.059,0.323l0.056,0.323l0.052,0.324l0.047,0.323l0.043,0.324l0.039,0.324l0.035,0.325l0.032,0.331l0.027,0.331l0.023,0.325l0.019,0.331l0.015,0.337l0.01,0.325l0.007,0.331l0.002,0.305l0,67.156l-0.002,0.304l-0.007,0.331l-0.01,0.325l-0.015,0.337l-0.019,0.332l-0.023,0.324l-0.027,0.331l-0.032,0.331l-0.035,0.325l-0.039,0.324l-0.043,0.324l-0.047,0.324l-0.052,0.323l-0.056,0.323l-0.059,0.323l-0.063,0.315l-0.067,0.316l-0.072,0.321l-0.075,0.314l-0.077,0.307l-0.082,0.313l-0.087,0.312l-0.09,0.312l-0.093,0.304l-0.097,0.304l-0.102,0.308l-0.105,0.302l-0.106,0.295l-0.111,0.3l-0.116,0.299l-0.12,0.298l-0.121,0.291l-0.125,0.289l-0.131,0.295l-0.13,0.282l-0.135,0.286l-0.14,0.284l-0.143,0.284l-0.144,0.277l-0.147,0.276l-0.155,0.279l-0.154,0.273l-0.158,0.271l-0.162,0.27l-0.166,0.268l-0.165,0.262l-0.169,0.26l-0.176,0.263l-0.176,0.257l-0.179,0.255l-0.183,0.254l-0.186,0.252l-0.189,0.249l-0.189,0.244l-0.196,0.247l-0.199,0.243l-0.196,0.234l-0.202,0.237l-0.206,0.234l-0.208,0.233l-0.212,0.23l-0.211,0.224l-0.218,0.226l-0.218,0.22l-0.221,0.218l-0.223,0.216l-0.227,0.214l-0.23,0.211l-0.23,0.206l-0.234,0.206l-0.239,0.205l-0.235,0.196l-0.241,0.196l-0.247,0.197l-0.247,0.192l-0.246,0.186l-0.252,0.187l-0.256,0.184l-0.25,0.175l-0.26,0.179l-0.265,0.176l-0.258,0.168l-0.263,0.166l-0.267,0.165l-0.274,0.164l-0.27,0.157l-0.268,0.153l-0.279,0.153l-0.28,0.151l-0.277,0.143l-0.282,0.143l-0.285,0.139l-0.284,0.135l-0.286,0.132l-0.291,0.129l-0.292,0.126l-0.293,0.122l-0.295,0.118l-0.295,0.115l-0.302,0.112l-0.3,0.108l-0.301,0.104l-0.305,0.101l-0.305,0.097l-0.305,0.093l-0.309,0.09l-0.312,0.087l-0.312,0.082l-0.311,0.079l-0.316,0.075l-0.316,0.071l-0.317,0.067l-0.319,0.063l-0.32,0.059l-0.322,0.056l-0.322,0.051l-0.324,0.047l-0.324,0.044l-0.326,0.039l-0.326,0.035l-0.329,0.032l-0.329,0.027l-0.329,0.023l-0.33,0.019l-0.331,0.014l-0.333,0.011l-0.332,0.006l-0.299,0.002l-116.841,0l-0.298,-0.002l-0.332,-0.006l-0.333,-0.011l-0.331,-0.014l-0.329,-0.019l-0.33,-0.023l-0.33,-0.027l-0.328,-0.032l-0.326,-0.035l-0.326,-0.039l-0.324,-0.044l-0.323,-0.047l-0.324,-0.052l-0.322,-0.055l-0.319,-0.059l-0.318,-0.063l-0.318,-0.067l-0.317,-0.072l-0.313,-0.074l-0.314,-0.079l-0.312,-0.082l-0.309,-0.086l-0.309,-0.09l-0.31,-0.094l-0.304,-0.097l-0.301,-0.1l-0.304,-0.105l-0.301,-0.108l-0.298,-0.112l-0.297,-0.115l-0.295,-0.118l-0.294,-0.122l-0.291,-0.126l-0.291,-0.129l-0.286,-0.132l-0.285,-0.135l-0.284,-0.139l-0.283,-0.143l-0.279,-0.145l-0.277,-0.149l-0.276,-0.151l-0.272,-0.155l-0.272,-0.159l-0.271,-0.162l-0.264,-0.163l-0.266,-0.168l-0.262,-0.17l-0.261,-0.174l-0.257,-0.176l-0.254,-0.178l-0.258,-0.187l-0.25,-0.184l-0.245,-0.186l-0.247,-0.192l-0.244,-0.194l-0.244,-0.199l-0.238,-0.199l-0.236,-0.202l-0.235,-0.206l-0.229,-0.206l-0.23,-0.211l-0.227,-0.214l-0.22,-0.212l-0.224,-0.222l-0.221,-0.224l-0.215,-0.222l-0.211,-0.224l-0.212,-0.23l-0.208,-0.233l-0.203,-0.23l-0.206,-0.241l-0.198,-0.238l-0.196,-0.239l-0.196,-0.247l-0.189,-0.244l-0.19,-0.249l-0.185,-0.252l-0.183,-0.254l-0.179,-0.255l-0.176,-0.257l-0.173,-0.259l-0.172,-0.264l-0.168,-0.267l-0.163,-0.263l-0.162,-0.27l-0.158,-0.271l-0.154,-0.273l-0.152,-0.274l-0.15,-0.281l-0.147,-0.282l-0.14,-0.279l-0.14,-0.284l-0.136,-0.286l-0.129,-0.282l-0.129,-0.289l-0.127,-0.295l-0.124,-0.297l-0.117,-0.292l-0.116,-0.299l-0.111,-0.3l-0.107,-0.295l-0.104,-0.302l-0.103,-0.308l-0.096,-0.304l-0.093,-0.304l-0.09,-0.312l-0.087,-0.312l-0.082,-0.313l-0.078,-0.307l-0.074,-0.314l-0.072,-0.321l-0.067,-0.316l-0.063,-0.315l-0.06,-0.323l-0.055,-0.323l-0.052,-0.323l-0.047,-0.324l-0.043,-0.324l-0.04,-0.324l-0.035,-0.325l-0.031,-0.331l-0.028,-0.331l-0.022,-0.324l-0.019,-0.332l-0.015,-0.331l-0.011,-0.331l-0.006,-0.337l-0.002,-0.298l0,-67.156l0.002,-0.299l0.006,-0.337l0.011,-0.331l0.015,-0.331l0.019,-0.331l0.022,-0.325l0.028,-0.331l0.031,-0.331l0.035,-0.325l0.04,-0.324l0.043,-0.324l0.047,-0.323l0.052,-0.324l0.055,-0.323l0.06,-0.323l0.063,-0.315l0.067,-0.315l0.072,-0.322l0.074,-0.314l0.077,-0.307l0.083,-0.313l0.087,-0.312l0.09,-0.311l0.093,-0.305l0.096,-0.303l0.103,-0.309l0.104,-0.302l0.107,-0.295l0.111,-0.3l0.116,-0.299l0.117,-0.292l0.124,-0.296l0.127,-0.296l0.129,-0.289l0.129,-0.281l0.136,-0.286l0.14,-0.286l0.14,-0.278l0.147,-0.282l0.15,-0.281l0.152,-0.274l0.154,-0.273l0.158,-0.271l0.162,-0.27l0.162,-0.263l0.169,-0.267l0.172,-0.264l0.173,-0.259l0.176,-0.257l0.179,-0.255l0.183,-0.254l0.185,-0.251l0.19,-0.25l0.189,-0.244l0.196,-0.246l0.196,-0.24l0.199,-0.239l0.206,-0.24l0.201,-0.23l0.209,-0.232l0.212,-0.231l0.211,-0.224l0.215,-0.222l0.22,-0.224l0.225,-0.222l0.22,-0.212l0.227,-0.214l0.23,-0.211l0.229,-0.206l0.236,-0.207l0.235,-0.201l0.237,-0.198l0.245,-0.2l0.244,-0.194l0.247,-0.191l0.246,-0.187l0.249,-0.184l0.258,-0.186l0.255,-0.179l0.257,-0.176l0.26,-0.173l0.262,-0.171l0.266,-0.168l0.264,-0.163l0.271,-0.162l0.272,-0.159l0.273,-0.155l0.275,-0.151l0.277,-0.148l0.28,-0.146l0.282,-0.143l0.284,-0.139l0.285,-0.135l0.286,-0.131l0.291,-0.13l0.291,-0.125l0.294,-0.123l0.295,-0.118l0.298,-0.116l0.297,-0.11l0.301,-0.109l0.304,-0.105l0.301,-0.1l0.304,-0.097l0.31,-0.094l0.309,-0.09l0.309,-0.085l0.312,-0.083l0.315,-0.079l0.312,-0.074l0.316,-0.071l0.319,-0.068l0.318,-0.063l0.319,-0.059l0.322,-0.055l0.324,-0.052l0.323,-0.047l0.324,-0.043l0.326,-0.04l0.327,-0.035l0.327,-0.031l0.329,-0.028l0.331,-0.023l0.33,-0.018l0.331,-0.015l0.331,-0.011l0.332,-0.006l0.299,-0.002l116.841,0l0.3,0.002Zm-117.106,10.998l-0.193,0.001l-0.194,0.004l-0.192,0.006l-0.192,0.009l-0.191,0.011l-0.191,0.013l-0.19,0.016l-0.189,0.018l-0.189,0.02l-0.188,0.023l-0.187,0.025l-0.187,0.027l-0.186,0.03l-0.185,0.032l-0.184,0.034l-0.183,0.036l-0.183,0.039l-0.182,0.04l-0.18,0.043l-0.181,0.046l-0.179,0.047l-0.178,0.05l-0.178,0.051l-0.176,0.054l-0.176,0.056l-0.174,0.058l-0.174,0.06l-0.173,0.062l-0.172,0.064l-0.171,0.066l-0.169,0.068l-0.169,0.071l-0.168,0.072l-0.166,0.074l-0.166,0.076l-0.164,0.078l-0.164,0.08l-0.162,0.082l-0.161,0.084l-0.16,0.086l-0.159,0.087l-0.158,0.09l-0.156,0.091l-0.155,0.093l-0.154,0.095l-0.153,0.097l-0.152,0.098l-0.15,0.1l-0.149,0.102l-0.148,0.104l-0.146,0.106l-0.145,0.107l-0.144,0.109l-0.142,0.11l-0.141,0.112l-0.14,0.114l-0.138,0.116l-0.137,0.117l-0.135,0.118l-0.134,0.121l-0.133,0.122l-0.131,0.123l-0.129,0.125l-0.128,0.127l-0.127,0.128l-0.125,0.129l-0.123,0.131l-0.122,0.133l-0.12,0.134l-0.119,0.135l-0.117,0.137l-0.116,0.138l-0.113,0.14l-0.113,0.141l-0.11,0.142l-0.109,0.144l-0.107,0.145l-0.106,0.146l-0.103,0.148l-0.102,0.149l-0.101,0.15l-0.098,0.152l-0.097,0.152l-0.095,0.155l-0.093,0.155l-0.091,0.156l-0.09,0.158l-0.087,0.159l-0.086,0.16l-0.084,0.161l-0.082,0.162l-0.08,0.163l-0.078,0.165l-0.076,0.165l-0.074,0.167l-0.072,0.168l-0.07,0.168l-0.069,0.17l-0.066,0.171l-0.064,0.172l-0.062,0.173l-0.06,0.173l-0.058,0.175l-0.056,0.176l-0.054,0.176l-0.051,0.178l-0.05,0.178l-0.047,0.179l-0.045,0.18l-0.043,0.181l-0.041,0.182l-0.039,0.183l-0.036,0.183l-0.034,0.184l-0.032,0.185l-0.03,0.186l-0.027,0.187l-0.025,0.187l-0.023,0.188l-0.02,0.188l-0.018,0.19l-0.016,0.19l-0.013,0.19l-0.011,0.192l-0.009,0.192l-0.006,0.192l-0.003,0.193l-0.002,0.194l0,67.091l0.002,0.194l0.003,0.193l0.006,0.193l0.009,0.192l0.011,0.191l0.013,0.191l0.016,0.19l0.018,0.189l0.02,0.189l0.023,0.187l0.025,0.188l0.027,0.186l0.03,0.186l0.032,0.185l0.034,0.184l0.036,0.184l0.039,0.182l0.041,0.182l0.043,0.181l0.045,0.18l0.047,0.179l0.05,0.179l0.051,0.177l0.054,0.177l0.056,0.175l0.058,0.175l0.06,0.174l0.062,0.172l0.064,0.172l0.066,0.171l0.069,0.17l0.07,0.168l0.072,0.168l0.074,0.167l0.076,0.165l0.078,0.165l0.08,0.163l0.082,0.162l0.084,0.162l0.086,0.16l0.087,0.158l0.09,0.158l0.091,0.156l0.093,0.156l0.095,0.154l0.097,0.153l0.098,0.151l0.101,0.15l0.102,0.149l0.103,0.148l0.106,0.146l0.107,0.145l0.109,0.144l0.11,0.143l0.113,0.141l0.113,0.139l0.116,0.138l0.117,0.137l0.119,0.136l0.12,0.134l0.122,0.132l0.123,0.131l0.125,0.13l0.127,0.128l0.128,0.126l0.129,0.125l0.131,0.124l0.133,0.121l0.134,0.121l0.135,0.118l0.137,0.118l0.138,0.115l0.14,0.114l0.141,0.112l0.142,0.111l0.144,0.109l0.145,0.107l0.146,0.105l0.148,0.104l0.149,0.102l0.15,0.1l0.152,0.099l0.153,0.096l0.154,0.095l0.155,0.093l0.156,0.092l0.158,0.089l0.159,0.088l0.16,0.085l0.161,0.084l0.162,0.082l0.164,0.08l0.164,0.078l0.166,0.076l0.166,0.074l0.168,0.073l0.169,0.07l0.169,0.068l0.171,0.066l0.172,0.064l0.173,0.062l0.174,0.06l0.174,0.058l0.176,0.056l0.176,0.054l0.178,0.052l0.178,0.049l0.179,0.048l0.181,0.045l0.18,0.043l0.182,0.041l0.183,0.038l0.183,0.037l0.184,0.034l0.185,0.032l0.186,0.029l0.187,0.027l0.187,0.026l0.188,0.022l0.189,0.021l0.189,0.018l0.19,0.015l0.191,0.014l0.191,0.011l0.192,0.008l0.192,0.006l0.194,0.004l0.193,0.001l116.771,0l0.194,-0.001l0.193,-0.004l0.193,-0.006l0.192,-0.008l0.191,-0.011l0.191,-0.014l0.19,-0.015l0.189,-0.018l0.189,-0.021l0.188,-0.022l0.187,-0.026l0.187,-0.027l0.185,-0.029l0.185,-0.032l0.184,-0.034l0.184,-0.037l0.183,-0.038l0.181,-0.041l0.181,-0.043l0.18,-0.045l0.18,-0.048l0.178,-0.049l0.177,-0.052l0.177,-0.054l0.176,-0.056l0.174,-0.058l0.174,-0.06l0.173,-0.062l0.172,-0.064l0.17,-0.066l0.17,-0.068l0.169,-0.07l0.168,-0.073l0.166,-0.074l0.166,-0.076l0.164,-0.078l0.164,-0.08l0.162,-0.082l0.161,-0.084l0.16,-0.085l0.159,-0.088l0.157,-0.089l0.157,-0.092l0.155,-0.093l0.154,-0.095l0.153,-0.096l0.151,-0.099l0.151,-0.1l0.149,-0.102l0.147,-0.104l0.147,-0.105l0.145,-0.107l0.144,-0.109l0.142,-0.111l0.141,-0.112l0.14,-0.114l0.138,-0.115l0.137,-0.118l0.135,-0.118l0.134,-0.121l0.132,-0.121l0.131,-0.124l0.13,-0.125l0.128,-0.126l0.127,-0.128l0.124,-0.13l0.124,-0.131l0.122,-0.132l0.12,-0.134l0.119,-0.136l0.117,-0.137l0.115,-0.138l0.114,-0.139l0.112,-0.141l0.111,-0.143l0.109,-0.144l0.107,-0.145l0.106,-0.146l0.103,-0.148l0.102,-0.149l0.1,-0.15l0.099,-0.151l0.097,-0.153l0.095,-0.154l0.093,-0.156l0.091,-0.156l0.089,-0.158l0.088,-0.158l0.086,-0.16l0.083,-0.162l0.082,-0.162l0.08,-0.163l0.078,-0.165l0.077,-0.165l0.074,-0.167l0.072,-0.168l0.07,-0.168l0.068,-0.17l0.067,-0.171l0.064,-0.172l0.062,-0.172l0.06,-0.174l0.058,-0.175l0.056,-0.175l0.053,-0.177l0.052,-0.177l0.05,-0.179l0.047,-0.179l0.045,-0.18l0.043,-0.181l0.041,-0.182l0.038,-0.182l0.037,-0.184l0.034,-0.184l0.032,-0.185l0.03,-0.186l0.027,-0.186l0.025,-0.188l0.023,-0.187l0.02,-0.189l0.018,-0.189l0.016,-0.19l0.013,-0.191l0.011,-0.191l0.008,-0.192l0.007,-0.193l0.003,-0.193l0.001,-0.194l0,-67.091l-0.001,-0.194l-0.003,-0.193l-0.007,-0.192l-0.008,-0.192l-0.011,-0.192l-0.013,-0.19l-0.016,-0.19l-0.018,-0.19l-0.02,-0.188l-0.023,-0.188l-0.025,-0.187l-0.027,-0.187l-0.03,-0.186l-0.032,-0.185l-0.034,-0.184l-0.037,-0.183l-0.038,-0.183l-0.041,-0.182l-0.043,-0.181l-0.045,-0.18l-0.047,-0.179l-0.05,-0.178l-0.052,-0.178l-0.053,-0.176l-0.056,-0.176l-0.058,-0.175l-0.06,-0.173l-0.062,-0.173l-0.064,-0.172l-0.067,-0.171l-0.068,-0.17l-0.07,-0.168l-0.072,-0.168l-0.074,-0.167l-0.077,-0.165l-0.078,-0.165l-0.08,-0.163l-0.082,-0.162l-0.083,-0.161l-0.086,-0.16l-0.088,-0.159l-0.089,-0.158l-0.091,-0.156l-0.093,-0.155l-0.095,-0.155l-0.097,-0.152l-0.099,-0.152l-0.1,-0.15l-0.102,-0.149l-0.103,-0.148l-0.106,-0.146l-0.107,-0.145l-0.109,-0.144l-0.111,-0.142l-0.112,-0.141l-0.114,-0.14l-0.115,-0.138l-0.117,-0.137l-0.119,-0.135l-0.12,-0.134l-0.122,-0.133l-0.124,-0.131l-0.124,-0.129l-0.127,-0.128l-0.128,-0.127l-0.13,-0.125l-0.131,-0.123l-0.132,-0.122l-0.134,-0.121l-0.135,-0.118l-0.137,-0.117l-0.138,-0.116l-0.14,-0.114l-0.141,-0.112l-0.142,-0.11l-0.144,-0.109l-0.145,-0.107l-0.147,-0.106l-0.147,-0.104l-0.149,-0.102l-0.151,-0.1l-0.151,-0.098l-0.153,-0.097l-0.154,-0.095l-0.155,-0.093l-0.157,-0.091l-0.157,-0.09l-0.159,-0.087l-0.16,-0.086l-0.161,-0.084l-0.162,-0.082l-0.164,-0.08l-0.164,-0.078l-0.166,-0.076l-0.166,-0.074l-0.168,-0.072l-0.169,-0.071l-0.17,-0.068l-0.17,-0.066l-0.172,-0.064l-0.173,-0.062l-0.174,-0.06l-0.174,-0.058l-0.176,-0.056l-0.177,-0.054l-0.177,-0.051l-0.178,-0.05l-0.18,-0.047l-0.18,-0.046l-0.181,-0.043l-0.181,-0.04l-0.183,-0.039l-0.184,-0.036l-0.184,-0.034l-0.185,-0.032l-0.185,-0.03l-0.187,-0.027l-0.187,-0.025l-0.188,-0.023l-0.189,-0.02l-0.189,-0.018l-0.19,-0.016l-0.191,-0.013l-0.191,-0.011l-0.192,-0.009l-0.193,-0.006l-0.193,-0.004l-0.194,-0.001l-116.771,0Z" style="fill:#fff;"/></g><path d="M162.704,243.371c0,-6.072 -4.929,-11 -11,-11l-101.576,0c-4.415,0 -8,3.584 -8,8l0,58.913l120.576,0l0,-55.913Z" id="Rounded-Rectangle-21" style="fill:url(#_Linear5);"/><path d="M113.462,311.081c0,-1.752 -1.423,-3.175 -3.176,-3.175l-15.328,0c-1.752,0 -3.175,1.423 -3.175,3.175c0,1.753 1.423,3.175 3.175,3.175l15.328,0c1.753,0 3.176,-1.422 3.176,-3.175Z" id="Rounded-Rectangle-31" style="fill:#e5f1ff;"/><path d="M86.493,319.539l31.185,0l0,17.004c0,0 -0.056,5.197 8.457,9.033c-3.919,0.89 -29.599,0 -29.599,0l0,-0.131c-0.307,0.019 -14.622,0.877 -18.5,0c8.513,-3.816 8.457,-8.988 8.457,-8.988l0,-16.918Z" id="Shape-2-copy1" style="fill:url(#_Linear6);"/><path d="M126.676,347.816c0,-2.194 -1.782,-3.975 -3.976,-3.975l-41.214,0c-2.194,0 -3.975,1.781 -3.975,3.975c0,2.194 1.781,3.976 3.975,3.976l41.214,0c2.194,0 3.976,-1.782 3.976,-3.976Z" id="Rounded-Rectangle-51" style="fill:#cce6ff;"/></g><g id="Monitor2"><path d="M287.052,272.171c0,-8.279 -6.721,-15 -15,-15l-116.75,0c-8.278,0 -15,6.721 -15,15l0,67.094c0,8.278 6.722,15 15,15l116.75,0c8.279,0 15,-6.722 15,-15l0,-67.094Z" id="Rounded-Rectangle-1-copy1" style="fill:#cce6ff;fill-opacity:0.258824;"/><g id="Rounded-Rectangle-12"><path d="M282.677,266.702c0,-8.279 -6.721,-15 -15,-15l-116.781,0c-8.279,0 -15,6.721 -15,15l0,67.094c0,8.279 6.721,15 15,15l116.781,0c8.279,0 15,-6.721 15,-15l0,-67.094Z" style="fill:url(#_Linear7);"/><path d="M268.021,239.844l0.344,0.007l0.343,0.01l0.342,0.016l0.341,0.019l0.341,0.024l0.339,0.028l0.339,0.032l0.337,0.037l0.337,0.04l0.335,0.045l0.335,0.049l0.334,0.053l0.332,0.058l0.329,0.061l0.329,0.065l0.329,0.07l0.326,0.073l0.326,0.077l0.323,0.081l0.323,0.085l0.32,0.089l0.317,0.093l0.318,0.096l0.318,0.102l0.313,0.103l0.311,0.108l0.312,0.112l0.308,0.115l0.307,0.119l0.304,0.122l0.303,0.126l0.304,0.131l0.297,0.133l0.296,0.136l0.294,0.139l0.295,0.144l0.291,0.147l0.289,0.151l0.286,0.153l0.285,0.157l0.284,0.161l0.279,0.163l0.275,0.165l0.277,0.17l0.275,0.174l0.271,0.176l0.267,0.179l0.267,0.182l0.267,0.188l0.263,0.189l0.256,0.19l0.255,0.193l0.255,0.198l0.252,0.2l0.252,0.206l0.246,0.205l0.243,0.208l0.243,0.214l0.237,0.212l0.238,0.219l0.234,0.221l0.231,0.223l0.228,0.225l0.224,0.227l0.226,0.233l0.222,0.236l0.215,0.234l0.215,0.24l0.212,0.242l0.206,0.24l0.209,0.25l0.206,0.253l0.199,0.249l0.195,0.252l0.196,0.258l0.191,0.26l0.189,0.262l0.185,0.264l0.182,0.265l0.178,0.267l0.179,0.274l0.173,0.275l0.168,0.272l0.167,0.279l0.164,0.28l0.159,0.282l0.16,0.289l0.152,0.284l0.149,0.286l0.148,0.293l0.144,0.295l0.141,0.296l0.136,0.296l0.133,0.299l0.129,0.299l0.124,0.3l0.124,0.308l0.12,0.309l0.113,0.304l0.112,0.311l0.11,0.318l0.104,0.313l0.1,0.313l0.097,0.321l0.092,0.316l0.088,0.316l0.085,0.323l0.083,0.331l0.077,0.324l0.072,0.318l0.07,0.333l0.066,0.333l0.061,0.326l0.057,0.334l0.053,0.335l0.049,0.334l0.045,0.335l0.04,0.335l0.037,0.335l0.032,0.342l0.028,0.335l0.024,0.342l0.02,0.349l0.015,0.335l0.011,0.342l0.006,0.349l0.002,0.306l0,67.164l-0.002,0.306l-0.006,0.349l-0.011,0.342l-0.015,0.335l-0.02,0.349l-0.024,0.342l-0.028,0.335l-0.032,0.342l-0.037,0.335l-0.04,0.335l-0.045,0.335l-0.049,0.334l-0.053,0.335l-0.057,0.333l-0.061,0.327l-0.066,0.333l-0.07,0.332l-0.072,0.319l-0.077,0.324l-0.083,0.331l-0.085,0.323l-0.088,0.316l-0.092,0.315l-0.097,0.321l-0.1,0.314l-0.104,0.313l-0.11,0.318l-0.112,0.311l-0.113,0.304l-0.12,0.309l-0.123,0.307l-0.126,0.301l-0.128,0.299l-0.133,0.298l-0.137,0.297l-0.14,0.296l-0.144,0.295l-0.148,0.293l-0.149,0.285l-0.152,0.285l-0.159,0.289l-0.16,0.282l-0.164,0.28l-0.167,0.279l-0.168,0.271l-0.174,0.276l-0.178,0.274l-0.178,0.267l-0.182,0.265l-0.185,0.264l-0.188,0.261l-0.192,0.261l-0.196,0.258l-0.195,0.251l-0.199,0.25l-0.206,0.253l-0.209,0.25l-0.206,0.24l-0.212,0.242l-0.216,0.24l-0.214,0.233l-0.222,0.236l-0.226,0.234l-0.224,0.227l-0.228,0.226l-0.232,0.223l-0.233,0.22l-0.238,0.218l-0.237,0.213l-0.244,0.214l-0.242,0.207l-0.246,0.206l-0.253,0.206l-0.251,0.2l-0.255,0.198l-0.254,0.193l-0.257,0.19l-0.264,0.19l-0.266,0.186l-0.266,0.182l-0.268,0.18l-0.272,0.176l-0.273,0.173l-0.277,0.171l-0.277,0.165l-0.278,0.163l-0.284,0.161l-0.285,0.157l-0.286,0.153l-0.289,0.151l-0.291,0.147l-0.295,0.144l-0.293,0.139l-0.296,0.136l-0.299,0.133l-0.303,0.131l-0.302,0.125l-0.306,0.123l-0.307,0.119l-0.307,0.115l-0.312,0.112l-0.311,0.107l-0.313,0.104l-0.318,0.101l-0.317,0.097l-0.317,0.092l-0.322,0.09l-0.322,0.085l-0.323,0.081l-0.327,0.077l-0.326,0.074l-0.327,0.069l-0.329,0.065l-0.33,0.061l-0.332,0.058l-0.335,0.053l-0.334,0.049l-0.335,0.045l-0.337,0.04l-0.337,0.037l-0.339,0.032l-0.339,0.028l-0.34,0.024l-0.342,0.019l-0.343,0.015l-0.342,0.011l-0.344,0.007l-0.306,0.002l-116.857,0l-0.306,-0.002l-0.343,-0.007l-0.343,-0.011l-0.343,-0.015l-0.342,-0.019l-0.339,-0.024l-0.34,-0.028l-0.339,-0.032l-0.337,-0.037l-0.336,-0.04l-0.335,-0.045l-0.335,-0.049l-0.334,-0.053l-0.331,-0.058l-0.332,-0.061l-0.329,-0.065l-0.327,-0.069l-0.327,-0.074l-0.326,-0.077l-0.322,-0.081l-0.321,-0.085l-0.324,-0.09l-0.319,-0.093l-0.315,-0.096l-0.315,-0.1l-0.316,-0.105l-0.313,-0.108l-0.31,-0.111l-0.306,-0.115l-0.308,-0.119l-0.305,-0.123l-0.303,-0.125l-0.3,-0.13l-0.299,-0.133l-0.299,-0.137l-0.296,-0.14l-0.291,-0.143l-0.292,-0.147l-0.289,-0.151l-0.286,-0.153l-0.287,-0.159l-0.278,-0.157l-0.279,-0.163l-0.283,-0.17l-0.277,-0.17l-0.27,-0.171l-0.271,-0.176l-0.269,-0.18l-0.266,-0.182l-0.266,-0.186l-0.26,-0.188l-0.261,-0.192l-0.257,-0.195l-0.251,-0.196l-0.252,-0.2l-0.249,-0.203l-0.25,-0.209l-0.246,-0.21l-0.24,-0.211l-0.237,-0.213l-0.237,-0.218l-0.234,-0.22l-0.231,-0.223l-0.228,-0.226l-0.225,-0.227l-0.226,-0.234l-0.218,-0.232l-0.218,-0.237l-0.216,-0.24l-0.212,-0.242l-0.209,-0.244l-0.206,-0.246l-0.202,-0.248l-0.199,-0.25l-0.202,-0.26l-0.196,-0.259l-0.188,-0.256l-0.185,-0.256l-0.189,-0.269l-0.182,-0.265l-0.178,-0.267l-0.178,-0.274l-0.174,-0.276l-0.171,-0.277l-0.164,-0.273l-0.163,-0.28l-0.16,-0.282l-0.156,-0.283l-0.156,-0.291l-0.152,-0.291l-0.144,-0.287l-0.145,-0.295l-0.14,-0.296l-0.134,-0.291l-0.133,-0.298l-0.131,-0.305l-0.128,-0.307l-0.121,-0.302l-0.12,-0.308l-0.115,-0.31l-0.11,-0.305l-0.108,-0.311l-0.106,-0.32l-0.099,-0.314l-0.096,-0.314l-0.094,-0.322l-0.089,-0.322l-0.086,-0.324l-0.079,-0.317l-0.078,-0.324l-0.074,-0.332l-0.069,-0.326l-0.066,-0.333l-0.062,-0.334l-0.056,-0.326l-0.052,-0.327l-0.049,-0.335l-0.046,-0.342l-0.04,-0.335l-0.037,-0.342l-0.032,-0.335l-0.028,-0.335l-0.024,-0.349l-0.019,-0.335l-0.016,-0.342l-0.011,-0.349l-0.006,-0.335l-0.002,-0.306l0,-67.178l0.002,-0.306l0.006,-0.335l0.011,-0.349l0.016,-0.342l0.019,-0.335l0.024,-0.349l0.028,-0.335l0.032,-0.335l0.037,-0.342l0.04,-0.335l0.046,-0.342l0.049,-0.334l0.052,-0.328l0.056,-0.327l0.062,-0.333l0.066,-0.333l0.069,-0.326l0.074,-0.332l0.078,-0.324l0.079,-0.317l0.085,-0.324l0.09,-0.322l0.094,-0.322l0.096,-0.315l0.099,-0.313l0.106,-0.319l0.108,-0.312l0.11,-0.305l0.115,-0.31l0.12,-0.309l0.121,-0.301l0.127,-0.307l0.132,-0.306l0.133,-0.298l0.134,-0.29l0.14,-0.296l0.145,-0.295l0.144,-0.287l0.152,-0.292l0.156,-0.29l0.156,-0.283l0.16,-0.282l0.163,-0.28l0.164,-0.273l0.171,-0.278l0.174,-0.275l0.178,-0.274l0.178,-0.267l0.182,-0.265l0.189,-0.269l0.185,-0.257l0.188,-0.255l0.195,-0.258l0.203,-0.261l0.199,-0.25l0.202,-0.248l0.206,-0.246l0.209,-0.244l0.212,-0.242l0.215,-0.24l0.22,-0.238l0.218,-0.232l0.225,-0.233l0.225,-0.227l0.227,-0.225l0.231,-0.223l0.235,-0.221l0.238,-0.219l0.236,-0.212l0.24,-0.21l0.246,-0.212l0.25,-0.208l0.248,-0.203l0.253,-0.2l0.251,-0.196l0.258,-0.195l0.26,-0.192l0.26,-0.187l0.266,-0.188l0.267,-0.182l0.268,-0.179l0.271,-0.176l0.271,-0.171l0.277,-0.171l0.282,-0.169l0.279,-0.163l0.278,-0.157l0.287,-0.159l0.286,-0.153l0.289,-0.151l0.292,-0.147l0.291,-0.142l0.297,-0.141l0.298,-0.138l0.298,-0.132l0.301,-0.13l0.304,-0.126l0.304,-0.122l0.307,-0.119l0.307,-0.115l0.31,-0.111l0.313,-0.109l0.316,-0.104l0.315,-0.101l0.316,-0.096l0.319,-0.093l0.322,-0.089l0.322,-0.085l0.323,-0.081l0.324,-0.077l0.327,-0.073l0.329,-0.07l0.329,-0.065l0.331,-0.062l0.331,-0.057l0.333,-0.053l0.335,-0.049l0.336,-0.045l0.336,-0.04l0.337,-0.037l0.339,-0.032l0.34,-0.028l0.34,-0.024l0.341,-0.019l0.342,-0.016l0.344,-0.01l0.343,-0.007l0.306,-0.002l116.857,0l0.306,0.002Zm-117.125,11.858l-0.194,0.001l-0.193,0.004l-0.192,0.006l-0.192,0.009l-0.192,0.011l-0.19,0.013l-0.19,0.016l-0.19,0.018l-0.188,0.02l-0.188,0.023l-0.188,0.025l-0.186,0.027l-0.186,0.03l-0.185,0.032l-0.184,0.034l-0.183,0.036l-0.183,0.039l-0.182,0.04l-0.181,0.043l-0.18,0.046l-0.179,0.047l-0.178,0.05l-0.178,0.051l-0.176,0.054l-0.176,0.056l-0.175,0.058l-0.174,0.06l-0.172,0.062l-0.172,0.064l-0.171,0.066l-0.17,0.068l-0.168,0.071l-0.168,0.072l-0.167,0.074l-0.165,0.076l-0.165,0.078l-0.163,0.08l-0.162,0.082l-0.161,0.084l-0.16,0.086l-0.159,0.087l-0.158,0.09l-0.156,0.091l-0.156,0.093l-0.154,0.095l-0.152,0.097l-0.152,0.098l-0.15,0.1l-0.149,0.102l-0.148,0.104l-0.146,0.105l-0.145,0.108l-0.144,0.109l-0.142,0.11l-0.141,0.112l-0.14,0.114l-0.138,0.116l-0.137,0.117l-0.136,0.118l-0.133,0.121l-0.133,0.122l-0.131,0.123l-0.129,0.125l-0.129,0.127l-0.126,0.128l-0.125,0.129l-0.123,0.131l-0.122,0.133l-0.121,0.134l-0.118,0.135l-0.117,0.137l-0.116,0.138l-0.114,0.14l-0.112,0.141l-0.111,0.142l-0.108,0.144l-0.108,0.145l-0.105,0.146l-0.104,0.148l-0.102,0.149l-0.1,0.15l-0.099,0.152l-0.096,0.152l-0.095,0.154l-0.093,0.156l-0.091,0.156l-0.09,0.158l-0.087,0.159l-0.086,0.16l-0.084,0.161l-0.082,0.162l-0.08,0.163l-0.078,0.165l-0.076,0.165l-0.074,0.167l-0.072,0.168l-0.071,0.168l-0.068,0.17l-0.066,0.171l-0.064,0.172l-0.062,0.173l-0.06,0.173l-0.058,0.175l-0.056,0.176l-0.054,0.176l-0.052,0.178l-0.049,0.178l-0.047,0.179l-0.046,0.18l-0.043,0.181l-0.04,0.182l-0.039,0.183l-0.036,0.183l-0.035,0.184l-0.031,0.185l-0.03,0.186l-0.027,0.186l-0.025,0.188l-0.023,0.188l-0.02,0.188l-0.019,0.19l-0.015,0.19l-0.014,0.19l-0.01,0.192l-0.009,0.192l-0.006,0.192l-0.004,0.193l-0.001,0.194l0,67.094l0.001,0.194l0.004,0.193l0.006,0.192l0.009,0.192l0.01,0.192l0.014,0.19l0.015,0.19l0.019,0.19l0.02,0.188l0.023,0.188l0.025,0.187l0.027,0.187l0.03,0.186l0.031,0.185l0.035,0.184l0.036,0.183l0.039,0.183l0.04,0.182l0.043,0.181l0.046,0.18l0.047,0.179l0.049,0.178l0.052,0.178l0.054,0.176l0.056,0.176l0.058,0.175l0.06,0.173l0.062,0.173l0.064,0.172l0.066,0.171l0.068,0.169l0.071,0.169l0.072,0.168l0.074,0.166l0.076,0.166l0.078,0.165l0.08,0.163l0.082,0.162l0.084,0.161l0.086,0.16l0.087,0.159l0.09,0.158l0.091,0.156l0.093,0.155l0.095,0.154l0.096,0.153l0.099,0.152l0.1,0.15l0.102,0.149l0.104,0.148l0.105,0.146l0.108,0.145l0.108,0.144l0.111,0.142l0.112,0.141l0.114,0.14l0.116,0.138l0.117,0.137l0.118,0.135l0.121,0.134l0.122,0.133l0.123,0.131l0.125,0.129l0.126,0.128l0.129,0.127l0.129,0.125l0.131,0.123l0.133,0.122l0.133,0.12l0.136,0.119l0.137,0.117l0.138,0.116l0.14,0.114l0.141,0.112l0.142,0.11l0.144,0.109l0.145,0.107l0.146,0.106l0.148,0.104l0.149,0.102l0.15,0.1l0.152,0.098l0.152,0.097l0.154,0.095l0.156,0.093l0.156,0.091l0.158,0.09l0.159,0.087l0.16,0.086l0.161,0.084l0.162,0.082l0.163,0.08l0.165,0.078l0.165,0.076l0.167,0.074l0.168,0.072l0.168,0.07l0.17,0.069l0.171,0.066l0.172,0.064l0.172,0.062l0.174,0.06l0.175,0.058l0.176,0.056l0.176,0.054l0.178,0.051l0.178,0.05l0.179,0.047l0.18,0.045l0.181,0.043l0.182,0.041l0.183,0.039l0.183,0.036l0.184,0.034l0.185,0.032l0.186,0.03l0.186,0.027l0.188,0.025l0.188,0.023l0.188,0.02l0.19,0.018l0.19,0.016l0.19,0.013l0.192,0.011l0.192,0.009l0.192,0.006l0.193,0.004l0.194,0.001l116.781,0l0.194,-0.001l0.193,-0.004l0.193,-0.006l0.192,-0.009l0.191,-0.011l0.191,-0.013l0.19,-0.016l0.189,-0.018l0.189,-0.02l0.188,-0.023l0.187,-0.025l0.186,-0.027l0.186,-0.03l0.185,-0.032l0.184,-0.034l0.184,-0.036l0.182,-0.039l0.182,-0.041l0.181,-0.043l0.18,-0.045l0.179,-0.047l0.179,-0.05l0.177,-0.051l0.177,-0.054l0.175,-0.056l0.175,-0.058l0.174,-0.06l0.173,-0.062l0.171,-0.064l0.171,-0.066l0.17,-0.069l0.169,-0.07l0.167,-0.072l0.167,-0.074l0.165,-0.076l0.165,-0.078l0.163,-0.08l0.163,-0.082l0.161,-0.084l0.16,-0.086l0.159,-0.087l0.157,-0.09l0.157,-0.091l0.155,-0.093l0.154,-0.095l0.153,-0.097l0.151,-0.098l0.15,-0.1l0.149,-0.102l0.148,-0.104l0.147,-0.106l0.145,-0.107l0.143,-0.109l0.143,-0.11l0.141,-0.112l0.139,-0.114l0.139,-0.116l0.136,-0.117l0.136,-0.119l0.134,-0.12l0.132,-0.122l0.131,-0.123l0.13,-0.125l0.128,-0.127l0.126,-0.128l0.125,-0.129l0.124,-0.131l0.122,-0.133l0.12,-0.134l0.119,-0.135l0.117,-0.137l0.115,-0.138l0.114,-0.14l0.112,-0.141l0.111,-0.142l0.109,-0.144l0.107,-0.145l0.105,-0.146l0.104,-0.148l0.102,-0.149l0.1,-0.15l0.099,-0.152l0.096,-0.153l0.095,-0.154l0.093,-0.155l0.092,-0.156l0.089,-0.158l0.088,-0.159l0.085,-0.16l0.084,-0.161l0.082,-0.162l0.08,-0.163l0.078,-0.165l0.076,-0.166l0.075,-0.166l0.072,-0.168l0.07,-0.169l0.068,-0.169l0.066,-0.171l0.064,-0.172l0.063,-0.173l0.06,-0.173l0.058,-0.175l0.055,-0.176l0.054,-0.176l0.052,-0.178l0.049,-0.178l0.048,-0.179l0.045,-0.18l0.043,-0.181l0.041,-0.182l0.038,-0.183l0.037,-0.183l0.034,-0.184l0.032,-0.185l0.029,-0.186l0.028,-0.187l0.025,-0.187l0.022,-0.188l0.021,-0.188l0.018,-0.19l0.015,-0.19l0.014,-0.19l0.011,-0.192l0.008,-0.192l0.006,-0.192l0.004,-0.193l0.001,-0.194l0,-67.094l-0.001,-0.194l-0.004,-0.193l-0.006,-0.192l-0.008,-0.192l-0.011,-0.192l-0.014,-0.19l-0.015,-0.19l-0.018,-0.19l-0.021,-0.188l-0.022,-0.188l-0.025,-0.188l-0.028,-0.186l-0.029,-0.186l-0.032,-0.185l-0.034,-0.184l-0.037,-0.183l-0.038,-0.183l-0.041,-0.182l-0.043,-0.181l-0.045,-0.18l-0.048,-0.179l-0.049,-0.178l-0.052,-0.178l-0.054,-0.176l-0.055,-0.176l-0.058,-0.175l-0.06,-0.173l-0.063,-0.173l-0.064,-0.172l-0.066,-0.171l-0.068,-0.17l-0.07,-0.168l-0.072,-0.168l-0.075,-0.167l-0.076,-0.165l-0.078,-0.165l-0.08,-0.163l-0.082,-0.162l-0.084,-0.161l-0.085,-0.16l-0.088,-0.159l-0.089,-0.158l-0.092,-0.156l-0.093,-0.156l-0.095,-0.154l-0.096,-0.152l-0.099,-0.152l-0.1,-0.15l-0.102,-0.149l-0.104,-0.148l-0.105,-0.146l-0.107,-0.145l-0.109,-0.144l-0.111,-0.142l-0.112,-0.141l-0.114,-0.14l-0.115,-0.138l-0.117,-0.137l-0.119,-0.135l-0.12,-0.134l-0.122,-0.133l-0.124,-0.131l-0.125,-0.129l-0.126,-0.128l-0.128,-0.127l-0.13,-0.125l-0.131,-0.123l-0.132,-0.122l-0.134,-0.121l-0.136,-0.118l-0.136,-0.117l-0.139,-0.116l-0.139,-0.114l-0.141,-0.112l-0.143,-0.11l-0.143,-0.109l-0.145,-0.108l-0.147,-0.105l-0.148,-0.104l-0.149,-0.102l-0.15,-0.1l-0.151,-0.098l-0.153,-0.097l-0.154,-0.095l-0.155,-0.093l-0.157,-0.091l-0.157,-0.09l-0.159,-0.087l-0.16,-0.086l-0.161,-0.084l-0.163,-0.082l-0.163,-0.08l-0.165,-0.078l-0.165,-0.076l-0.167,-0.074l-0.167,-0.072l-0.169,-0.071l-0.17,-0.068l-0.171,-0.066l-0.171,-0.064l-0.173,-0.062l-0.174,-0.06l-0.175,-0.058l-0.175,-0.056l-0.177,-0.054l-0.177,-0.051l-0.179,-0.05l-0.179,-0.047l-0.18,-0.046l-0.181,-0.043l-0.182,-0.04l-0.182,-0.039l-0.184,-0.036l-0.184,-0.034l-0.185,-0.032l-0.186,-0.03l-0.186,-0.027l-0.187,-0.025l-0.188,-0.023l-0.189,-0.02l-0.189,-0.018l-0.19,-0.016l-0.191,-0.013l-0.191,-0.011l-0.192,-0.009l-0.193,-0.006l-0.193,-0.004l-0.194,-0.001l-116.781,0Z" style="fill:#fff;"/></g><path d="M269.709,272.296c0,-6.071 -4.929,-11 -11,-11l-101.563,0c-4.415,0 -8,3.584 -8,8l0,58.906l120.563,0l0,-55.906Z" id="Rounded-Rectangle-22" style="fill:url(#_Linear8);"/><path d="M220.49,339.999c0,-1.751 -1.422,-3.172 -3.172,-3.172l-15.344,0c-1.75,0 -3.172,1.421 -3.172,3.172c0,1.751 1.422,3.172 3.172,3.172l15.344,0c1.75,0 3.172,-1.421 3.172,-3.172Z" id="Rounded-Rectangle-32" style="fill:#e5f1ff;"/><path d="M193.507,348.452l31.185,0l0,17.004c0,0 -0.056,5.197 8.456,9.033c-3.918,0.89 -29.599,0 -29.599,0l0,-0.131c-0.306,0.019 -14.621,0.877 -18.499,0c8.513,-3.816 8.457,-8.987 8.457,-8.987l0,-16.919Z" id="Shape-2-copy2" style="fill:url(#_Linear9);"/><path d="M233.677,376.733c0,-2.19 -1.778,-3.968 -3.968,-3.968l-41.219,0c-2.191,0 -3.969,1.778 -3.969,3.968c0,2.191 1.778,3.969 3.969,3.969l41.219,0c2.19,0 3.968,-1.778 3.968,-3.969Z" id="Rounded-Rectangle-52" style="fill:#cce6ff;"/></g><g id="Cloud"><path d="M281.234,185.891l-35.072,0l-21.536,0l-94.142,0c-19.03,0 -34.457,-15.408 -34.457,-34.413c0,-17.539 13.141,-32.003 30.124,-34.133c-1.174,-3.36 -1.82,-6.967 -1.82,-10.727c0,-17.988 14.601,-32.57 32.611,-32.57c7.886,0 15.117,2.796 20.756,7.448c3.281,-25.007 24.685,-44.319 50.62,-44.319c28.205,0 51.07,22.836 51.07,51.005c0,3.581 -0.373,7.075 -1.076,10.447l2.922,0c24.127,0 43.686,19.534 43.686,43.631c0,24.097 -19.559,43.631 -43.686,43.631Z" id="Rounded-Rectangle-1-copy2" style="fill:#cce6ff;"/><circle cx="227.739" cy="87.27" r="46.09" style="fill:url(#_Linear10);"/><circle cx="280.472" cy="142.646" r="40.862" style="fill:url(#_Linear11);"/><circle cx="157.734" cy="107.096" r="29.579" style="fill:url(#_Linear12);"/><circle cx="132.427" cy="151.405" r="31.751" style="fill:url(#_Linear13);"/><circle cx="207.823" cy="136.746" r="42.078" style="fill:url(#_Linear14);"/><path d="M281.234,185.891l-35.072,0l-21.536,0l-94.142,0c-19.03,0 -34.457,-15.408 -34.457,-34.413c0,-17.539 13.141,-32.003 30.124,-34.133c-1.174,-3.36 -1.82,-6.967 -1.82,-10.727c0,-17.988 14.601,-32.57 32.611,-32.57c7.886,0 15.117,2.796 20.756,7.448c3.281,-25.007 24.685,-44.319 50.62,-44.319c28.205,0 51.07,22.836 51.07,51.005c0,3.581 -0.373,7.075 -1.076,10.447l2.922,0c24.127,0 43.686,19.534 43.686,43.631c0,24.097 -19.559,43.631 -43.686,43.631Z" id="Rounded-Rectangle-1-copy3" style="fill:url(#_Linear15);"/></g><defs><linearGradient gradientTransform="matrix(4.73121e-15,77.2665,-77.2665,4.73121e-15,374.659,282.584)" gradientUnits="userSpaceOnUse" id="_Linear1" x1="0" x2="1" y1="0" y2="0"><stop offset="0" style="stop-color:#cce6ff;stop-opacity:1"/><stop offset="1" style="stop-color:#1d98ff;stop-opacity:1"/></linearGradient><linearGradient gradientTransform="matrix(4.31697e-15,70.5015,-70.5015,4.31697e-15,323.877,250.243)" gradientUnits="userSpaceOnUse" id="_Linear2" x1="0" x2="1" y1="0" y2="0"><stop offset="0" style="stop-color:#fff;stop-opacity:1"/><stop offset="1" style="stop-color:#d0e4fc;stop-opacity:1"/></linearGradient><linearGradient gradientTransform="matrix(1.74821e-15,-28.5504,28.5504,1.74821e-15,315.935,348.74)" gradientUnits="userSpaceOnUse" id="_Linear3" x1="0" x2="1" y1="0" y2="0"><stop offset="0" style="stop-color:#cce6ff;stop-opacity:1"/><stop offset="1" style="stop-color:#1d98ff;stop-opacity:1"/></linearGradient><linearGradient gradientTransform="matrix(5.05546e-15,82.5619,-82.5619,5.05546e-15,38.4324,277.593)" gradientUnits="userSpaceOnUse" id="_Linear4" x1="0" x2="1" y1="0" y2="0"><stop offset="0" style="stop-color:#cce6ff;stop-opacity:1"/><stop offset="1" style="stop-color:#1d98ff;stop-opacity:1"/></linearGradient><linearGradient gradientTransform="matrix(5.487e-15,89.6096,-89.6096,5.487e-15,89.3371,263.689)" gradientUnits="userSpaceOnUse" id="_Linear5" x1="0" x2="1" y1="0" y2="0"><stop offset="0" style="stop-color:#fff;stop-opacity:1"/><stop offset="1" style="stop-color:#d0e4fc;stop-opacity:1"/></linearGradient><linearGradient gradientTransform="matrix(1.97306e-15,-32.2226,32.2226,1.97306e-15,101.37,349.243)" gradientUnits="userSpaceOnUse" id="_Linear6" x1="0" x2="1" y1="0" y2="0"><stop offset="0" style="stop-color:#cce6ff;stop-opacity:1"/><stop offset="1" style="stop-color:#1d98ff;stop-opacity:1"/></linearGradient><linearGradient gradientTransform="matrix(4.87591e-15,79.6297,-79.6297,4.87591e-15,263.167,307.246)" gradientUnits="userSpaceOnUse" id="_Linear7" x1="0" x2="1" y1="0" y2="0"><stop offset="0" style="stop-color:#cce6ff;stop-opacity:1"/><stop offset="1" style="stop-color:#1d98ff;stop-opacity:1"/></linearGradient><linearGradient gradientTransform="matrix(2.98343e-15,48.7231,-48.7231,2.98343e-15,209.515,294.044)" gradientUnits="userSpaceOnUse" id="_Linear8" x1="0" x2="1" y1="0" y2="0"><stop offset="0" style="stop-color:#fff;stop-opacity:1"/><stop offset="1" style="stop-color:#d0e4fc;stop-opacity:1"/></linearGradient><linearGradient gradientTransform="matrix(2.448e-15,-39.9789,39.9789,2.448e-15,218.772,384.003)" gradientUnits="userSpaceOnUse" id="_Linear9" x1="0" x2="1" y1="0" y2="0"><stop offset="0" style="stop-color:#cce6ff;stop-opacity:1"/><stop offset="1" style="stop-color:#1d98ff;stop-opacity:1"/></linearGradient><linearGradient gradientTransform="matrix(-34.4492,75.0148,-75.0148,-34.4492,263.438,21.3569)" gradientUnits="userSpaceOnUse" id="_Linear10" x1="0" x2="1" y1="0" y2="0"><stop offset="0" style="stop-color:#fff;stop-opacity:1"/><stop offset="1" style="stop-color:#cce6ff;stop-opacity:1"/></linearGradient><linearGradient gradientTransform="matrix(-30.5414,66.5053,-66.5053,-30.5414,312.121,84.2094)" gradientUnits="userSpaceOnUse" id="_Linear11" x1="0" x2="1" y1="0" y2="0"><stop offset="0" style="stop-color:#fff;stop-opacity:1"/><stop offset="1" style="stop-color:#cce6ff;stop-opacity:1"/></linearGradient><linearGradient gradientTransform="matrix(13.436,50.3756,-50.3756,13.436,145.1,62.5613)" gradientUnits="userSpaceOnUse" id="_Linear12" x1="0" x2="1" y1="0" y2="0"><stop offset="0" style="stop-color:#fff;stop-opacity:1"/><stop offset="1" style="stop-color:#cce6ff;stop-opacity:1"/></linearGradient><linearGradient gradientTransform="matrix(31.3473,55.5248,-55.5248,31.3473,101.941,102.151)" gradientUnits="userSpaceOnUse" id="_Linear13" x1="0" x2="1" y1="0" y2="0"><stop offset="0" style="stop-color:#fff;stop-opacity:1"/><stop offset="1" style="stop-color:#cce6ff;stop-opacity:1"/></linearGradient><linearGradient gradientTransform="matrix(26.7947,70.9582,-70.9582,26.7947,182.169,74.0974)" gradientUnits="userSpaceOnUse" id="_Linear14" x1="0" x2="1" y1="0" y2="0"><stop offset="0" style="stop-color:#fff;stop-opacity:1"/><stop offset="1" style="stop-color:#cce6ff;stop-opacity:1"/></linearGradient><linearGradient gradientTransform="matrix(5.69119e-15,92.9442,-92.9442,5.69119e-15,215.08,100.695)" gradientUnits="userSpaceOnUse" id="_Linear15" x1="0" x2="1" y1="0" y2="0"><stop offset="0" style="stop-color:#cce6ff;stop-opacity:0"/><stop offset="1" style="stop-color:#1d98ff;stop-opacity:1"/></linearGradient></defs></svg>