<?xml version="1.0" ?><!DOCTYPE svg  PUBLIC '-//W3C//DTD SVG 1.1//EN'  'http://www.w3.org/Graphics/SVG/1.1/DTD/svg11.dtd'><svg height="100%" style="fill-rule:evenodd;clip-rule:evenodd;stroke-linejoin:round;stroke-miterlimit:1.41421;" version="1.1" viewBox="0 0 389 336" width="100%" xml:space="preserve" xmlns="http://www.w3.org/2000/svg" xmlns:serif="http://www.serif.com/" xmlns:xlink="http://www.w3.org/1999/xlink"><rect height="334.165" id="_21.-SSL" style="fill:none;" width="387.634" x="0.595" y="0.855"/><path d="M374.64,50.014c0,-8.883 -7.212,-16.095 -16.095,-16.095l-309.609,0c-8.883,0 -16.095,7.212 -16.095,16.095l0,193.869c0,8.883 7.212,16.095 16.095,16.095l309.609,0c8.883,0 16.095,-7.212 16.095,-16.095l0,-193.869Z" id="Rounded-Rectangle-1-copy" style="fill:#cce6ff;fill-opacity:0.258824;"/><path d="M364.409,37.282c0,-8.883 -7.212,-16.095 -16.095,-16.095l-309.61,0c-8.883,0 -16.095,7.212 -16.095,16.095l0,193.869c0,8.883 7.212,16.095 16.095,16.095l309.61,0c8.883,0 16.095,-7.212 16.095,-16.095l0,-193.869Z" id="Rounded-Rectangle-1" style="fill:url(#_Linear1);"/><path d="M346.522,48.299c0,-6.514 -5.288,-11.803 -11.802,-11.803l-284.756,0c-4.738,0 -8.584,3.847 -8.584,8.584l0,161.355l305.142,0l0,-158.136Z" id="Rounded-Rectangle-2" style="fill:url(#_Linear2);"/><path d="M219.55,225.797c0,-3.553 -2.885,-6.438 -6.438,-6.438l-37.59,0c-3.554,0 -6.438,2.885 -6.438,6.438l0,1.894c0,3.554 2.884,6.438 6.438,6.438l37.59,0c3.553,0 6.438,-2.884 6.438,-6.438l0,-1.894Z" id="Rounded-Rectangle-3" style="fill:#e5f1ff;"/><path d="M272.587,148.234l-0.184,0.004c-14.234,0 -25.79,-11.556 -25.79,-25.789l0,-21.31c0,-14.234 11.556,-25.79 25.79,-25.79c14.234,0 25.79,11.556 25.79,25.79l0,21.31c0,14.047 -11.255,25.486 -25.238,25.776c7.597,-0.136 13.721,-6.35 13.721,-13.984l0,-32.301c0,-7.726 -6.272,-13.998 -13.997,-13.998c-7.726,0 -13.998,6.272 -13.998,13.998l0,32.301c0,7.696 6.225,13.95 13.906,13.993Z" id="Rounded-Rectangle-5" style="fill:url(#_Linear3);"/><path d="M305.891,120.598c0,-5.922 -4.807,-10.73 -10.73,-10.73l-46.047,0c-5.922,0 -10.73,4.808 -10.73,10.73l0,33.905c0,5.922 4.808,10.73 10.73,10.73l46.047,0c5.923,0 10.73,-4.808 10.73,-10.73l0,-33.905Z" id="Rounded-Rectangle-6" style="fill:url(#_Linear4);"/><path d="M267.907,139.477c-2.852,-1.262 -4.836,-4.063 -4.836,-7.313c0,-4.433 3.692,-8.031 8.24,-8.031c4.547,0 8.239,3.598 8.239,8.031c0,3.441 -2.224,6.379 -5.344,7.52l0,5.405c0,1.738 -1.412,3.149 -3.15,3.149c-1.738,0 -3.149,-1.411 -3.149,-3.149l0,-5.612Z" id="Ellipse-1" style="fill:#fff;"/><g id="SSL"><path d="M120.978,136.061c0,-19.295 -29.68,-13.793 -29.68,-22.007c0,-3.1 2.635,-5.192 7.362,-5.192c3.797,0 7.827,0.93 11.391,2.944c0.93,0.543 1.86,0.775 2.79,0.775c2.635,0 5.502,-2.014 5.502,-4.959c0,-0.93 -0.31,-1.86 -0.93,-2.635c-2.867,-3.797 -11.856,-5.734 -17.745,-5.734c-12.167,0 -19.606,7.129 -19.606,15.731c0,19.45 29.757,13.173 29.757,22.317c0,2.945 -2.945,5.735 -8.989,5.735c-5.037,0 -9.454,-1.628 -12.941,-4.03c-0.853,-0.62 -1.937,-0.852 -2.945,-0.852c-2.635,0 -5.192,2.169 -5.192,5.114c0,0.93 0.31,1.86 0.853,2.635c2.867,4.262 12.166,6.742 19.682,6.742c13.949,0 20.691,-7.13 20.691,-16.584Z" style="fill:#0085ff;fill-rule:nonzero;"/><path d="M167.473,136.061c0,-19.295 -29.68,-13.793 -29.68,-22.007c0,-3.1 2.635,-5.192 7.362,-5.192c3.797,0 7.827,0.93 11.391,2.944c0.93,0.543 1.86,0.775 2.79,0.775c2.635,0 5.502,-2.014 5.502,-4.959c0,-0.93 -0.31,-1.86 -0.93,-2.635c-2.867,-3.797 -11.856,-5.734 -17.745,-5.734c-12.167,0 -19.606,7.129 -19.606,15.731c0,19.45 29.757,13.173 29.757,22.317c0,2.945 -2.945,5.735 -8.989,5.735c-5.037,0 -9.454,-1.628 -12.941,-4.03c-0.853,-0.62 -1.937,-0.852 -2.945,-0.852c-2.635,0 -5.192,2.169 -5.192,5.114c0,0.93 0.31,1.86 0.853,2.635c2.867,4.262 12.166,6.742 19.683,6.742c13.948,0 20.69,-7.13 20.69,-16.584Z" style="fill:#0085ff;fill-rule:nonzero;"/><path d="M208.233,146.755c0,-2.557 -2.169,-4.727 -4.727,-4.727l-17.59,0l0,-37.041c0,-2.944 -2.48,-5.424 -5.425,-5.424c-3.099,0 -5.579,2.48 -5.579,5.424l0,40.528c0,3.41 2.79,6.2 6.199,6.2l22.395,0c2.558,0 4.727,-2.17 4.727,-4.96Z" style="fill:#0085ff;fill-rule:nonzero;"/></g><path d="M156.775,246.438l72.622,0l0,39.586c0,0 -0.13,12.1 19.694,21.03c-9.126,2.073 -68.93,0 -68.93,0l0,-0.303c-0.714,0.043 -34.051,2.041 -43.08,0c19.824,-8.885 19.694,-20.925 19.694,-20.925l0,-39.388Z" id="Shape-2-copy" style="fill:url(#_Linear5);"/><path d="M250.322,311.106c0,-4.442 -3.606,-8.047 -8.048,-8.047l-98.377,0c-4.441,0 -8.047,3.605 -8.047,8.047l0,2.368c0,4.442 3.606,8.048 8.047,8.048l98.377,0c4.442,0 8.048,-3.606 8.048,-8.048l0,-2.368Z" id="Rounded-Rectangle-51" style="fill:#cce6ff;"/><defs><linearGradient gradientTransform="matrix(1.05228e-14,171.851,-171.851,1.05228e-14,357.045,149.588)" gradientUnits="userSpaceOnUse" id="_Linear1" x1="0" x2="1" y1="0" y2="0"><stop offset="0" style="stop-color:#cce6ff;stop-opacity:1"/><stop offset="1" style="stop-color:#1d98ff;stop-opacity:1"/></linearGradient><linearGradient gradientTransform="matrix(1.46903e-14,239.911,-239.911,1.46903e-14,182.546,135.325)" gradientUnits="userSpaceOnUse" id="_Linear2" x1="0" x2="1" y1="0" y2="0"><stop offset="0" style="stop-color:#fff;stop-opacity:1"/><stop offset="1" style="stop-color:#d0e4fc;stop-opacity:1"/></linearGradient><linearGradient gradientTransform="matrix(-6.89899,-39.0549,39.0549,-6.89899,275.858,104.134)" gradientUnits="userSpaceOnUse" id="_Linear3" x1="0" x2="1" y1="0" y2="0"><stop offset="0" style="stop-color:#0bbc00;stop-opacity:1"/><stop offset="1" style="stop-color:#79df68;stop-opacity:1"/></linearGradient><linearGradient gradientTransform="matrix(-14.2997,-62.2765,62.2765,-14.2997,293.845,158.245)" gradientUnits="userSpaceOnUse" id="_Linear4" x1="0" x2="1" y1="0" y2="0"><stop offset="0" style="stop-color:#0bbc00;stop-opacity:1"/><stop offset="1" style="stop-color:#79df68;stop-opacity:1"/></linearGradient><linearGradient gradientTransform="matrix(5.68866e-15,-92.9029,92.9029,5.68866e-15,212.637,331.212)" gradientUnits="userSpaceOnUse" id="_Linear5" x1="0" x2="1" y1="0" y2="0"><stop offset="0" style="stop-color:#cce6ff;stop-opacity:1"/><stop offset="1" style="stop-color:#1d98ff;stop-opacity:1"/></linearGradient></defs></svg>