<?xml version="1.0" ?><!DOCTYPE svg  PUBLIC '-//W3C//DTD SVG 1.1//EN'  'http://www.w3.org/Graphics/SVG/1.1/DTD/svg11.dtd'><svg height="100%" style="fill-rule:evenodd;clip-rule:evenodd;stroke-linejoin:round;stroke-miterlimit:1.41421;" version="1.1" viewBox="0 0 431 256" width="100%" xml:space="preserve" xmlns="http://www.w3.org/2000/svg" xmlns:serif="http://www.serif.com/" xmlns:xlink="http://www.w3.org/1999/xlink"><rect height="254.503" id="_20.-SSD" style="fill:none;" width="430.841" x="0.063" y="0.548"/><path d="M423.545,234.134c0,-4.998 -4.058,-9.055 -9.056,-9.055l-387.784,0c-4.998,0 -9.055,4.057 -9.055,9.055c0,4.998 4.057,9.055 9.055,9.055l387.784,0c4.998,0 9.056,-4.057 9.056,-9.055Z" id="Rounded-Rectangle-6-copy-3" style="fill:url(#_Radial1);"/><path d="M416.184,181.21c0,-29.804 -24.196,-54 -54,-54l-293,0c-29.803,0 -54,24.196 -54,54c0,29.803 24.197,54 54,54l293,0c29.804,0 54,-24.197 54,-54Z" id="Rounded-Rectangle-6" style="fill:url(#_Linear2);"/><path d="M16.406,169.744c-0.386,-0.996 -0.308,-2.081 0.304,-3.211l48.75,-137.463c1.465,-2.707 5.263,-12.86 17.26,-12.86l260.402,0c11.748,0 15.933,10.153 17.571,12.86l47.71,124.216c-9.466,-15.625 -26.631,-26.076 -46.219,-26.076l-293,0c-25.87,0 -47.515,18.231 -52.778,42.534Z" id="Rounded-Rectangle-3" style="fill:url(#_Linear3);"/><path d="M16.406,169.744c-0.386,-0.996 -0.308,-2.081 0.304,-3.211l48.75,-137.463c1.465,-2.707 5.263,-12.86 17.26,-12.86l260.402,0c11.748,0 15.933,10.153 17.571,12.86l47.71,124.216c-9.466,-15.625 -26.631,-26.076 -46.219,-26.076l-293,0c-25.87,0 -47.515,18.231 -52.778,42.534Z" id="Rounded-Rectangle-31" style="fill:url(#_Linear4);"/><path d="M16.406,169.744c-0.386,-0.996 -0.308,-2.081 0.304,-3.211l48.75,-137.463c1.465,-2.707 5.263,-12.86 17.26,-12.86l260.402,0c11.748,0 15.933,10.153 17.571,12.86l47.71,124.216c-9.466,-15.625 -26.631,-26.076 -46.219,-26.076l-293,0c-25.87,0 -47.515,18.231 -52.778,42.534Z" id="Rounded-Rectangle-32" style="fill:url(#_Linear5);"/><path d="M402.184,180.71c0,-22.905 -18.595,-41.5 -41.5,-41.5l-290,0c-22.904,0 -41.5,18.595 -41.5,41.5c0,22.904 18.596,41.5 41.5,41.5l290,0c22.905,0 41.5,-18.596 41.5,-41.5Z" id="Rounded-Rectangle-6-copy" style="fill:url(#_Linear6);"/><path d="M390.786,209.21c-7.521,8.006 -18.233,13 -30.102,13l-290,0c-11.868,0 -22.58,-4.994 -30.102,-13l350.204,0Z" id="Rounded-Rectangle-6-copy-2" style="fill:#0084ff;fill-opacity:0.211765;"/><path d="M373.184,186.21c0,-6.071 -4.929,-11 -11,-11c-6.071,0 -11,4.929 -11,11c0,6.071 4.929,11 11,11c6.071,0 11,-4.929 11,-11Z" id="Rounded-Rectangle-5" style="fill:#0bbc00;"/><path d="M369.184,186.71c0,-3.588 -2.912,-6.5 -6.5,-6.5c-3.587,0 -6.5,2.912 -6.5,6.5c0,3.587 2.913,6.5 6.5,6.5c3.588,0 6.5,-2.913 6.5,-6.5Z" id="Rounded-Rectangle-5-copy" style="fill:#a6f997;"/><g id="SSD"><path d="M102.35,190.526c0,-17.983 -27.66,-12.855 -27.66,-20.51c0,-2.889 2.455,-4.839 6.86,-4.839c3.539,0 7.295,0.867 10.617,2.744c0.866,0.506 1.733,0.722 2.6,0.722c2.455,0 5.127,-1.877 5.127,-4.622c0,-0.866 -0.289,-1.733 -0.866,-2.455c-2.672,-3.539 -11.05,-5.344 -16.539,-5.344c-11.338,0 -18.271,6.644 -18.271,14.66c0,18.128 27.732,12.278 27.732,20.8c0,2.744 -2.744,5.344 -8.377,5.344c-4.695,0 -8.811,-1.517 -12.061,-3.755c-0.795,-0.578 -1.806,-0.795 -2.745,-0.795c-2.455,0 -4.838,2.022 -4.838,4.767c0,0.866 0.289,1.733 0.794,2.455c2.672,3.972 11.339,6.283 18.344,6.283c13,0 19.283,-6.644 19.283,-15.455Z" style="fill:#fff;fill-rule:nonzero;"/><path d="M145.682,190.526c0,-17.983 -27.66,-12.855 -27.66,-20.51c0,-2.889 2.455,-4.839 6.86,-4.839c3.539,0 7.295,0.867 10.617,2.744c0.866,0.506 1.733,0.722 2.6,0.722c2.455,0 5.127,-1.877 5.127,-4.622c0,-0.866 -0.289,-1.733 -0.866,-2.455c-2.672,-3.539 -11.05,-5.344 -16.539,-5.344c-11.338,0 -18.271,6.644 -18.271,14.66c0,18.128 27.732,12.278 27.732,20.8c0,2.744 -2.744,5.344 -8.377,5.344c-4.695,0 -8.811,-1.517 -12.061,-3.755c-0.795,-0.578 -1.806,-0.795 -2.745,-0.795c-2.455,0 -4.838,2.022 -4.838,4.767c0,0.866 0.289,1.733 0.794,2.455c2.672,3.972 11.339,6.283 18.344,6.283c13,0 19.283,-6.644 19.283,-15.455Z" style="fill:#fff;fill-rule:nonzero;"/><path d="M197.175,181.065c0,-14.516 -10.472,-24.121 -25.566,-24.121l-13.217,0c-3.177,0 -5.777,2.6 -5.777,5.777l0,36.616c0,3.178 2.6,5.778 5.777,5.778l13.217,0c15.094,0 25.566,-9.533 25.566,-24.05Zm-10.472,0c0,8.161 -5.561,15.022 -15.094,15.022l-8.739,0l0,-30.116l8.739,0c9.894,0 15.094,6.572 15.094,15.094Z" style="fill:#fff;fill-rule:nonzero;"/></g><defs><radialGradient cx="0" cy="0" gradientTransform="matrix(-196.448,2.40579e-14,-2.29822e-15,-18.7664,214.079,230.795)" gradientUnits="userSpaceOnUse" id="_Radial1" r="1"><stop offset="0" style="stop-color:#0084ff;stop-opacity:1"/><stop offset="1" style="stop-color:#004fb8;stop-opacity:0"/></radialGradient><linearGradient gradientTransform="matrix(5.97811e-15,-97.63,97.63,5.97811e-15,28.3089,199.805)" gradientUnits="userSpaceOnUse" id="_Linear2" x1="0" x2="1" y1="0" y2="0"><stop offset="0" style="stop-color:#cce6ff;stop-opacity:1"/><stop offset="1" style="stop-color:#fefeff;stop-opacity:1"/></linearGradient><linearGradient gradientTransform="matrix(381.939,0,0,374.227,24.4522,194.471)" gradientUnits="userSpaceOnUse" id="_Linear3" x1="0" x2="1" y1="0" y2="0"><stop offset="0" style="stop-color:#aadeff;stop-opacity:1"/><stop offset="0.11" style="stop-color:#def0ff;stop-opacity:1"/><stop offset="0.23" style="stop-color:#e6f3ff;stop-opacity:1"/><stop offset="0.31" style="stop-color:#cce6ff;stop-opacity:1"/><stop offset="0.51" style="stop-color:#cce6ff;stop-opacity:1"/><stop offset="0.67" style="stop-color:#9dd1ff;stop-opacity:1"/><stop offset="0.89" style="stop-color:#7bcaff;stop-opacity:1"/><stop offset="1" style="stop-color:#1d98ff;stop-opacity:1"/></linearGradient><linearGradient gradientTransform="matrix(58.1185,21.8835,-21.8835,58.1185,7.90875,172.588)" gradientUnits="userSpaceOnUse" id="_Linear4" x1="0" x2="1" y1="0" y2="0"><stop offset="0" style="stop-color:#7ad5fe;stop-opacity:1"/><stop offset="1" style="stop-color:#def0ff;stop-opacity:0"/></linearGradient><linearGradient gradientTransform="matrix(-46.4242,13.2266,-13.2266,-46.4242,420.516,175.038)" gradientUnits="userSpaceOnUse" id="_Linear5" x1="0" x2="1" y1="0" y2="0"><stop offset="0" style="stop-color:#d0e4fc;stop-opacity:1"/><stop offset="1" style="stop-color:#def0ff;stop-opacity:0"/></linearGradient><linearGradient gradientTransform="matrix(1.01638e-14,165.987,-165.987,1.01638e-14,311.155,146.245)" gradientUnits="userSpaceOnUse" id="_Linear6" x1="0" x2="1" y1="0" y2="0"><stop offset="0" style="stop-color:#91d4ff;stop-opacity:1"/><stop offset="1" style="stop-color:#0097ff;stop-opacity:1"/></linearGradient></defs></svg>