<?xml version="1.0" encoding="utf-8"?>
<!-- Generator: Adobe Illustrator 22.0.1, SVG Export Plug-In . SVG Version: 6.00 Build 0)  -->
<svg version="1.1" id="Layer_1" xmlns="http://www.w3.org/2000/svg" xmlns:xlink="http://www.w3.org/1999/xlink" x="0px" y="0px"
	 viewBox="0 0 10203 4802" style="enable-background:new 0 0 10203 4802;" xml:space="preserve">
<style type="text/css">
	.st0{fill:#52565F;}
</style>
<g transform="translate(0.000000,4802.000000) scale(0.100000,-0.100000)">
	<path class="st0" d="M52780,36179c-153-6-614-38-616-42c0-1-393-2938-873-6527s-876-6539-879-6556c-6-27-376,651-3467,6353
		c-1903,3512-3462,6386-3466,6388c-6,5-2588-431-2595-437c-5-6-2335-14471-2331-14475c5-4,2586,433,2591,438c2,2,149,963,326,2134
		c178,1172,325,2131,326,2133c6,9,3958,672,3965,665c4-4,467-858,1028-1897s1024-1893,1028-1897c5-5,547,82,1279,206
		c698,118,1275,215,1283,215c9,0,12-9,7-32c-3-18-8-55-12-83l-6-50l264-72c1150-315,2517-551,3708-639c295-21,979-30,1250-15
		c1050,58,1865,281,2530,695c481,300,955,792,1259,1310c458,780,647,1787,500,2671c-155,932-689,1769-1512,2369l-108,79l138,72
		c988,514,1642,1377,1817,2400c100,579,61,1180-110,1692c-152,459-375,818-744,1197c-632,650-1357,1042-2435,1314
		C55837,36064,54042,36233,52780,36179z M54910,33954c791-67,1357-188,1801-384c415-183,721-455,868-771c218-468,156-1163-144-1608
		c-377-560-1143-849-2075-781c-149,11-1371,169-1382,179c-4,4,93,762,217,1686c124,923,225,1685,225,1693c0,13,23,14,158,8
		C54664,33972,54814,33962,54910,33954z M43939,29826c457-846,831-1540,829-1541c-7-7-2703-460-2706-455c-1,3,119,766,268,1696
		c257,1607,310,1963,361,2417l23,198l196-388C43018,31540,43481,30673,43939,29826z M54260,28410c289-39,588-82,665-95
		c697-127,1293-368,1690-683c92-73,253-230,320-312c269-331,401-743,382-1196c-26-610-247-1129-617-1451c-321-279-740-445-1315-520
		c-196-25-815-25-1050,0c-309,34-930,129-1152,177c-47,10-52,14-48,33c3,12,127,933,275,2047c149,1114,273,2037,276,2051
		c4,20,10,25,27,22C53725,28481,53971,28448,54260,28410z"/>
	<path class="st0" d="M49145,19710c-3997-118-7804-876-11490-2288c-3976-1523-7667-3802-10850-6698c-355-323-951-890-1155-1098
		l-55-56l607-607l606-606l289,279c463,449,732,701,1129,1054c2890,2574,6183,4604,9754,6015c4612,1822,9582,2577,14540,2209
		c5124-380,10072-1947,14456-4580c2209-1326,4301-2944,6117-4733l248-245l607,607l607,608l-260,257c-294,291-538,523-865,822
		c-2694,2464-5703,4457-9000,5962c-3444,1571-7167,2572-10950,2942c-699,69-1349,113-2170,147C50980,19714,49507,19721,49145,19710z
		"/>
</g>
</svg>
