<?xml version="1.0" encoding="utf-8"?>
<!-- Generator: Adobe Illustrator 22.0.1, SVG Export Plug-In . SVG Version: 6.00 Build 0)  -->
<svg version="1.1" id="Layer_1" xmlns="http://www.w3.org/2000/svg" xmlns:xlink="http://www.w3.org/1999/xlink" x="0px" y="0px"
	 viewBox="0 0 10204 4802" style="enable-background:new 0 0 10204 4802;" xml:space="preserve">
<style type="text/css">
	.st0{fill:#52565F;}
</style>
<g transform="translate(0.000000,4802.000000) scale(0.100000,-0.100000)">
	<path class="st0" d="M40577,27309c-2106-3438-3827-6253-3825-6255c3-2,573-132,1269-289c695-157,1271-288,1279-290
		c12-4,303,473,1130,1849c612,1020,1118,1852,1124,1850s882-199,1946-439s1942-439,1950-444c12-7,59-425,242-2156
		c125-1181,229-2149,231-2151c7-8,2610-594,2615-589s-1556,14577-1563,14583c-4,4-2554,582-2565,582
		C44407,33559,42682,30746,40577,27309z M44899,29650c19-308,45-565,236-2370c101-953,183-1736,180-1738c-4-5-2665,595-2673,602
		c-2,3,401,668,896,1479c824,1349,1055,1736,1262,2116c58,105,75,130,81,115C44885,29844,44893,29752,44899,29650z"/>
	<path class="st0" d="M55590,33143c-831-20-2053-221-3205-528c-616-164-978-283-1602-527c-44-17-52-24-48-42
		c3-11,507-3015,1120-6675c613-3659,1116-6655,1118-6657c7-7,598,15,847,31c946,62,2134,228,2999,421c1209,269,2143,645,2845,1146
		c363,260,694,584,912,893c320,454,545,970,654,1499c60,292,87,664,71,973c-47,882-313,1617-807,2238c-117,147-379,407-535,532
		c-357,284-809,528-1239,668c-47,15-87,29-88,31c-2,1,50,56,115,121c659,658,1017,1453,1040,2314c7,246-5,428-43,649
		c-128,751-449,1387-938,1858c-245,235-463,385-851,582c-478,243-926,374-1506,440c-166,19-593,42-704,38
		C55718,33147,55648,33145,55590,33143z M55812,30955c450-53,794-199,1033-440c204-204,337-475,411-836c25-121,28-154,28-344
		c0-179-3-224-22-308c-112-506-450-914-992-1201c-227-119-539-233-815-296c-108-25-1355-241-1361-236c-2,1-564,3360-564,3368
		c0,26,633,168,1055,237C55064,30977,55467,30996,55812,30955z M56810,25416c1002-140,1587-602,1801-1420c60-231,73-346,73-626
		c0-239-1-263-27-381c-123-575-492-1010-1135-1337c-372-189-824-334-1337-426c-341-62-1038-158-1049-145c-3,3-683,4060-689,4108
		c-3,24,1148,213,1463,240C56078,25444,56674,25435,56810,25416z"/>
	<path class="st0" d="M27032,23217c-331-331-602-607-602-613c0-20,807-793,1215-1164c4650-4227,10321-7089,16470-8315
		c1926-384,3814-596,5840-656c445-13,1890-7,2265,10c826,37,1425,79,2110,147c6250,619,12177,2909,17200,6647
		c1268,944,2518,2015,3598,3081l253,250l-608,608l-607,607l-241-237c-132-130-346-337-475-458c-2837-2671-6061-4786-9615-6309
		c-4696-2011-9847-2898-14980-2579c-5473,339-10761,2036-15390,4937c-1966,1233-3849,2714-5500,4327c-116,113-237,231-270,262
		l-60,58L27032,23217z"/>
</g>
</svg>
