<svg xmlns="http://www.w3.org/2000/svg" width="1024" height="1024" viewBox="0 0 1024 1024">
	<path transform="matrix(1 0 0 -1 0 864)" style="fill:#EFCE0A" d="M614.665-160h-467.291c-77.495 0-140.75 63.586-140.75 141.082v467.291c0 77.495 63.255 140.75 140.75 140.75h467.291c77.495 0 140.75-63.255 140.75-140.75v-467.291c0.331-77.495-63.255-141.082-140.75-141.082zM414.965 325.175c114.918-38.417 132.14-80.807 153.335-229.837 21.195 149.030 38.417 191.42 153.335 229.837-114.918 38.417-132.14 80.807-153.335 229.837-21.195-149.030-38.417-191.42-153.335-229.837zM108.626 27.446c76.502-25.501 88.093-53.982 102.003-153.335 14.241 99.353 25.501 127.834 102.003 153.335-76.502 25.501-88.093 53.982-102.003 153.335-13.909-99.684-25.501-127.834-102.003-153.335zM848.807 231.783c0-60.937-0.331-122.204 0.331-183.141 0-12.254-3.643-15.565-15.565-14.903-13.247 0.662-26.494 0.662-39.41-1.656-19.208-3.312-26.825-24.507-13.247-38.748 32.787-34.111 66.567-67.56 100.347-100.678 9.604-9.273 22.189-8.942 32.124 0.994 33.449 33.118 66.898 66.235 99.684 99.684 12.916 13.578 6.292 34.774-11.922 38.417-13.578 2.649-27.819 2.318-41.728 1.987-10.598-0.331-14.241 2.649-14.241 13.909 0.331 123.529 0.331 246.727 0 370.256 0 10.266 3.312 13.909 13.578 13.247 11.591-0.662 23.182-0.331 34.774 0 11.26 0 19.871 4.968 24.176 15.565s1.325 19.539-6.292 27.157c-32.455 32.455-64.58 64.911-97.035 97.035-11.922 11.591-22.851 11.591-34.774-0.331-32.787-32.455-65.573-65.242-98.028-98.028-7.617-7.617-9.273-16.89-5.299-26.163 4.305-9.935 12.254-15.234 23.182-15.565 12.254 0 24.838-0.662 37.092 0 9.273 0.662 11.922-2.649 11.922-11.922 0-62.592 0.331-124.854 0.331-187.115zM376.217 689.801c62.261 0 124.191-0.331 186.453 0.331 10.598 0 13.909-2.981 13.247-13.247-0.662-11.591-0.331-23.182 0-34.774 0-11.591 5.299-19.871 15.897-24.507 10.266-4.305 18.546-0.662 25.832 6.624 32.124 32.124 64.58 64.248 96.373 97.035 12.916 12.916 12.254 24.838-0.662 38.085-31.462 31.793-63.255 63.586-94.717 95.048-7.286 7.286-15.234 12.916-26.494 7.948-11.922-4.968-16.559-14.241-16.559-26.494 0-12.585-0.331-24.838 0-37.423 0.331-7.617-2.981-10.598-10.266-10.598-12.916 0.331-25.832 0-38.417 0-111.276 0-222.882 0-334.158 0-16.559 0-16.559 0-16.559 16.228 0 10.929 0 21.527 0 32.455 0 11.922-4.968 20.533-16.228 25.501-10.598 4.636-18.877 0-25.832-6.955-32.787-32.455-65.242-64.911-97.366-97.697-11.26-11.26-11.26-23.514 0-35.105 32.787-33.78 65.904-66.567 99.022-99.684 6.955-6.955 15.565-9.273 25.169-4.968s14.572 11.922 14.903 22.52c0.331 12.585 0.662 24.838 0 37.423-0.662 10.266 3.312 12.585 12.916 12.585 62.592-0.662 125.185-0.331 187.446-0.331z" />
</svg>