<svg xmlns="http://www.w3.org/2000/svg" width="1024" height="1024" viewBox="0 0 1024 1024">
	<path transform="matrix(1 0 0 -1 0 960)" style="fill:#59AC35" d="M379.529 684.461c-79.814 0-159.959-1.656-239.772 0.662-58.287 1.656-132.14-53.651-132.471-131.477-0.994-161.614-0.994-323.229 0-484.843 0.331-72.528 66.235-127.172 119.224-129.821 15.897-0.662 32.124-2.649 48.021-2.649 143.4-0.331 286.468-0.331 429.868 0.331 17.884 0 36.429 2.649 53.32 8.279 57.956 19.208 94.717 71.865 94.717 133.133 0 155.322 0 310.644 0 465.966 0 67.56-43.053 122.867-107.964 138.763-7.948 1.987-16.559 1.656-24.838 1.656-80.145 0-160.29 0-240.103 0zM211.291 61.185c-29.144 0-49.014 0.331-68.554-0.331-10.929-0.331-14.241 3.974-14.241 14.572 0.331 38.417-0.331 77.164 0.662 115.581 0 6.955 3.974 14.903 8.942 19.871 81.47 82.463 163.27 164.264 244.74 246.727 9.273 9.273 15.234 8.611 23.845-0.331 38.748-39.741 78.158-79.151 117.899-118.23 9.935-9.604 9.604-14.903 0-24.838-68.223-67.56-137.439-134.458-203.343-204.668-33.449-35.767-67.229-62.261-109.951-48.352zM423.576 499.332c19.208 18.215 36.098 36.098 54.644 51.332 16.228 13.247 42.722 9.935 58.618-5.63 25.501-24.507 50.339-49.345 74.846-75.177 19.539-20.533 19.208-46.365 0-67.229-11.591-12.585-24.176-24.176-36.098-36.761-5.961-6.292-11.26-7.617-18.215-0.662-43.384 44.047-87.431 87.762-133.796 134.127zM178.505 155.902c12.585 0 22.851-0.331 33.118 0 10.266 0.662 13.909-3.643 13.247-13.578-0.662-5.63 0-11.26 0-17.221 0.331-16.89 3.312-21.195 18.877-16.228 10.598 3.643 18.877 14.572 27.488 22.851 0.662 0.662-3.312 7.948-5.961 10.929-15.897 16.559-31.793 32.787-48.352 48.352-4.968 4.636-14.903 11.591-16.559 10.266-8.279-6.955-15.897-15.565-21.195-25.169-2.981-3.974-0.662-11.591-0.662-20.202zM407.679 394.018c-5.961 1.987-10.266 4.968-13.247 4.305-3.974-1.325-7.617-4.968-10.929-8.279-43.384-43.384-86.768-86.768-129.821-130.484-2.318-2.318-5.299-4.305-5.961-6.955-0.994-3.312-0.331-7.286-0.331-10.929 3.643 0 7.948-0.662 11.26 0.331 3.312 1.325 5.63 4.636 7.948 7.286 42.722 42.722 85.113 85.444 127.503 128.166 4.305 3.974 7.617 9.273 13.578 16.559zM848.807 327.783c0-60.937-0.331-122.204 0.331-183.141 0-12.254-3.643-15.565-15.565-14.903-13.247 0.662-26.494 0.662-39.41-1.656-19.208-3.312-26.825-24.507-13.247-38.748 32.787-34.111 66.567-67.56 100.347-100.678 9.604-9.273 22.189-8.942 32.124 0.994 33.449 33.118 66.898 66.235 99.684 99.684 12.916 13.578 6.292 34.774-11.922 38.417-13.578 2.649-27.819 2.318-41.728 1.987-10.598-0.331-14.241 2.649-14.241 13.909 0.331 123.529 0.331 246.727 0 370.256 0 10.266 3.312 13.909 13.578 13.247 11.591-0.662 23.182-0.331 34.774 0 11.26 0 19.871 4.968 24.176 15.565s1.325 19.539-6.292 27.157c-32.455 32.455-64.58 64.911-97.035 97.035-11.922 11.591-22.851 11.591-34.774-0.331-32.787-32.455-65.573-65.242-98.028-98.028-7.617-7.617-9.273-16.89-5.299-26.163 4.305-9.935 12.254-15.234 23.182-15.565 12.254 0 24.838-0.662 37.092 0 9.273 0.662 11.922-2.649 11.922-11.922 0-62.592 0.331-124.854 0.331-187.115zM376.217 785.801c62.261 0 124.191-0.331 186.453 0.331 10.598 0 13.909-2.981 13.247-13.247-0.662-11.591-0.331-23.182 0-34.774 0-11.591 5.299-19.871 15.897-24.507 10.266-4.305 18.546-0.662 25.832 6.624 32.124 32.124 64.58 64.248 96.373 97.035 12.916 12.916 12.254 24.838-0.662 38.085-31.462 31.793-63.255 63.586-94.717 95.048-7.286 7.286-15.234 12.916-26.494 7.948-11.922-4.968-16.559-14.241-16.559-26.494 0-12.585-0.331-24.838 0-37.423 0.331-7.617-2.981-10.598-10.266-10.598-12.916 0.331-25.832 0-38.417 0-111.276 0-222.882 0-334.158 0-16.559 0-16.559 0-16.559 16.228 0 10.929 0 21.527 0 32.455 0 11.922-4.968 20.533-16.228 25.501-10.598 4.636-18.877 0-25.832-6.955-32.787-32.455-65.242-64.911-97.366-97.697-11.26-11.26-11.26-23.514 0-35.105 32.787-33.78 65.904-66.567 99.022-99.684 6.955-6.955 15.565-9.273 25.169-4.968s14.572 11.922 14.903 22.52c0.331 12.585 0.662 24.838 0 37.423-0.662 10.266 3.312 12.585 12.916 12.585 62.592-0.662 125.185-0.331 187.446-0.331z" />
</svg>