<svg xmlns="http://www.w3.org/2000/svg" width="1024" height="1024" viewBox="0 0 1024 1024">
	<path transform="matrix(1 0 0 -1 0 960)" style="fill:#404040" d="M381.847 699.695c-81.47 0-163.27-1.656-244.74 0.662-59.943 1.656-135.783-54.644-136.114-134.127-0.994-164.926-0.994-329.853 0-494.779 0.331-73.853 67.56-129.821 122.204-132.471 16.89-0.994 34.111-2.649 51.001-2.649 146.712-0.331 293.092-0.331 439.803 0.331 18.215 0 37.423 2.649 54.644 8.279 59.612 19.539 97.366 73.521 97.366 135.783 0 159.627 0 319.255 0 478.882 0 66.235-47.358 125.185-112.269 139.094-7.617 1.656-15.897 1.325-23.845 1.325-82.794-0.331-165.589-0.331-248.052-0.331zM242.091 85.361c-22.189 0-44.378 0-66.567 0-8.611 0-17.552 0.331-25.832 2.649-32.455 9.273-53.651 37.423-53.651 71.865v259.312c0 5.299 0 10.598 1.325 15.565 8.611 36.098 37.092 58.618 74.515 59.281 9.273 0 18.877 0.331 28.15 0.331s18.546 0 27.819-0.331c0 0 0 0 0 0 5.63 0 8.279 1.987 10.266 6.955 3.312 9.935 7.286 20.202 11.922 31.131 8.942 21.858 30.137 36.098 53.651 36.098h141.413c24.507 0 45.702-14.903 54.313-37.754 3.643-9.273 7.286-18.546 10.266-27.819 1.987-6.292 5.299-8.611 11.26-8.611 0.331 0 0.662 0 0.994 0 9.273 0 18.546 0.331 27.488 0.331s18.215 0 27.488-0.331c43.053-0.662 75.508-32.124 75.84-73.19 0.331-57.625 0-116.243 0-172.875v-2.318c0-29.144 0-58.618 0-87.762 0-19.539-7.617-37.092-22.851-51.995-14.241-13.909-32.455-20.533-55.969-20.533h-199.038c-22.189 0-44.378 0-66.567 0s-44.047 0-66.235 0v0zM375.224 159.213c64.911-2.649 130.815 54.975 130.484 130.484-0.331 70.21-56.3 131.146-131.477 130.815-74.846 0-131.477-61.599-130.815-132.471 0.331-72.528 63.586-131.809 131.809-128.828zM374.893 206.241c-45.702 0-83.125 37.423-83.125 83.125-1.325 19.539 6.624 39.741 21.527 56.3 15.897 17.221 38.085 27.157 60.274 27.157h0.662c46.696-0.662 83.125-37.423 83.125-83.457 0-45.040-37.754-83.125-82.463-83.125zM376.217 785.801c62.261 0 124.191-0.331 186.453 0.331 10.598 0 13.909-2.981 13.247-13.247-0.662-11.591-0.331-23.182 0-34.774 0-11.591 5.299-19.871 15.897-24.507 10.266-4.305 18.546-0.662 25.832 6.624 32.124 32.124 64.58 64.248 96.373 97.035 12.916 12.916 12.254 24.838-0.662 38.085-31.462 31.793-63.255 63.586-94.717 95.048-7.286 7.286-15.234 12.916-26.494 7.948-11.922-4.968-16.559-14.241-16.559-26.494 0-12.585-0.331-24.838 0-37.423 0.331-7.617-2.981-10.598-10.266-10.598-12.916 0.331-25.832 0-38.417 0-111.276 0-222.882 0-334.158 0-16.559 0-16.559 0-16.559 16.228 0 10.929 0 21.527 0 32.455 0 11.922-4.968 20.533-16.228 25.501-10.598 4.636-18.877 0-25.832-6.955-32.787-32.455-65.242-64.911-97.366-97.697-11.26-11.26-11.26-23.514 0-35.105 32.787-33.78 65.904-66.567 99.022-99.684 6.955-6.955 15.565-9.273 25.169-4.968s14.572 11.922 14.903 22.52c0.331 12.585 0.662 24.838 0 37.423-0.662 10.266 3.312 12.585 12.916 12.585 62.592-0.662 125.185-0.331 187.446-0.331zM848.807 327.783c0-60.937-0.331-122.204 0.331-183.141 0-12.254-3.643-15.565-15.565-14.903-13.247 0.662-26.494 0.662-39.41-1.656-19.208-3.312-26.825-24.507-13.247-38.748 32.787-34.111 66.567-67.56 100.347-100.678 9.604-9.273 22.189-8.942 32.124 0.994 33.449 33.118 66.898 66.235 99.684 99.684 12.916 13.578 6.292 34.774-11.922 38.417-13.578 2.649-27.819 2.318-41.728 1.987-10.598-0.331-14.241 2.649-14.241 13.909 0.331 123.529 0.331 246.727 0 370.256 0 10.266 3.312 13.909 13.578 13.247 11.591-0.662 23.182-0.331 34.774 0 11.26 0 19.871 4.968 24.176 15.565s1.325 19.539-6.292 27.157c-32.455 32.455-64.58 64.911-97.035 97.035-11.922 11.591-22.851 11.591-34.774-0.331-32.787-32.455-65.573-65.242-98.028-98.028-7.617-7.617-9.273-16.89-5.299-26.163 4.305-9.935 12.254-15.234 23.182-15.565 12.254 0 24.838-0.662 37.092 0 9.273 0.662 11.922-2.649 11.922-11.922 0-62.592 0.331-124.854 0.331-187.115z" />
</svg>