<?xml version="1.0" encoding="utf-8"?>
<!-- Generator: Adobe Illustrator 22.1.0, SVG Export Plug-In . SVG Version: 6.00 Build 0)  -->
<svg version="1.1" id="レイヤー_1" xmlns="http://www.w3.org/2000/svg" xmlns:xlink="http://www.w3.org/1999/xlink" x="0px"
	 y="0px" viewBox="0 0 30 36.7" style="fill:#FFFFFF;enable-background:new 0 0 30 36.7;" xml:space="preserve">
<g>
	<path d="M30,19.2v15c0,0.7-0.2,1.3-0.7,1.8c-0.5,0.5-1.1,0.7-1.8,0.7h-25c-0.7,0-1.3-0.2-1.8-0.7C0.2,35.5,0,34.9,0,34.2v-15
		c0-0.7,0.2-1.3,0.7-1.8c0.5-0.5,1.1-0.7,1.8-0.7h0.8v-5c0-3.2,1.1-5.9,3.4-8.2S11.8,0,15,0c3.2,0,5.9,1.1,8.2,3.4s3.4,5,3.4,8.2v5
		h0.8c0.7,0,1.3,0.2,1.8,0.7C29.8,17.9,30,18.5,30,19.2z M8.3,16.7h13.3v-5c0-1.8-0.7-3.4-2-4.7S16.8,5,15,5c-1.8,0-3.4,0.7-4.7,2
		c-1.3,1.3-2,2.9-2,4.7V16.7z"/>
</g>
</svg>
