<?xml version="1.0" encoding="utf-8"?>
<!-- Generator: Adobe Illustrator 22.1.0, SVG Export Plug-In . SVG Version: 6.00 Build 0)  -->
<svg version="1.1" id="レイヤー_1" xmlns="http://www.w3.org/2000/svg" xmlns:xlink="http://www.w3.org/1999/xlink" x="0px"
	 y="0px" viewBox="0 0 35.9 39.5" style="fill:#52565F;enable-background:new 0 0 35.9 39.5;" xml:space="preserve">
<g>
	<path transform="rotate(-90) translate(-39.5 0)" d="M19.4,21.7c0,0.2-0.1,0.4-0.3,0.5L10.6,30l3.7,3.4c0.3,0.3,0.5,0.6,0.5,1.1c0,0.4-0.2,0.8-0.5,1.1
		c-0.3,0.3-0.7,0.4-1.2,0.4H1.6c-0.4,0-0.8-0.1-1.2-0.4C0.2,35.2,0,34.9,0,34.4V24c0-0.4,0.2-0.8,0.5-1.1c0.3-0.3,0.7-0.4,1.2-0.4
		c0.4,0,0.8,0.1,1.2,0.4l3.7,3.4l8.5-7.8c0.2-0.2,0.4-0.2,0.6-0.2c0.2,0,0.4,0.1,0.6,0.2l2.9,2.7C19.3,21.3,19.4,21.5,19.4,21.7z
		 M39.5,1.5V12c0,0.4-0.2,0.8-0.5,1.1c-0.3,0.3-0.7,0.4-1.2,0.4c-0.4,0-0.8-0.1-1.2-0.4L33,9.7l-8.5,7.8c-0.2,0.2-0.4,0.2-0.6,0.2
		c-0.2,0-0.4-0.1-0.6-0.2l-2.9-2.7c-0.2-0.2-0.3-0.3-0.3-0.5c0-0.2,0.1-0.4,0.3-0.5l8.5-7.8l-3.7-3.4c-0.3-0.3-0.5-0.6-0.5-1.1
		s0.2-0.8,0.5-1.1C25.5,0.1,25.9,0,26.3,0h11.5c0.4,0,0.8,0.1,1.2,0.4C39.3,0.7,39.5,1.1,39.5,1.5z"/>
</g>
</svg>
