<?xml version="1.0" encoding="utf-8"?>
<!-- Generator: Adobe Illustrator 22.1.0, SVG Export Plug-In . SVG Version: 6.00 Build 0)  -->
<svg version="1.1" id="レイヤー_1" xmlns="http://www.w3.org/2000/svg" xmlns:xlink="http://www.w3.org/1999/xlink" x="0px"
	 y="0px" viewBox="0 0 40 40" style="fill:#52565F;enable-background:new 0 0 40 40;" xml:space="preserve">
<g>
	<path d="M38.4,12.2c1.1,2.5,1.6,5.1,1.6,7.8s-0.5,5.3-1.6,7.8c-1.1,2.5-2.5,4.6-4.3,6.4c-1.8,1.8-3.9,3.2-6.4,4.3
		C25.3,39.5,22.7,40,20,40c-3,0-5.8-0.6-8.5-1.9c-2.7-1.3-5-3-6.9-5.3c-0.1-0.2-0.2-0.4-0.2-0.6c0-0.2,0.1-0.4,0.2-0.5l3.6-3.6
		c0.2-0.2,0.4-0.2,0.7-0.2c0.3,0,0.5,0.1,0.6,0.3c1.3,1.6,2.8,2.9,4.7,3.8c1.8,0.9,3.8,1.4,5.9,1.4c1.8,0,3.5-0.4,5.2-1.1
		c1.6-0.7,3.1-1.7,4.3-2.9c1.2-1.2,2.1-2.6,2.9-4.3c0.7-1.6,1.1-3.4,1.1-5.2c0-1.8-0.4-3.5-1.1-5.2c-0.7-1.6-1.7-3.1-2.9-4.3
		s-2.6-2.1-4.3-2.9C23.5,7,21.8,6.7,20,6.7c-1.7,0-3.3,0.3-4.9,0.9c-1.6,0.6-3,1.5-4.2,2.6l3.6,3.6c0.5,0.5,0.7,1.1,0.4,1.8
		c-0.3,0.7-0.8,1-1.5,1H1.7c-0.5,0-0.8-0.2-1.2-0.5C0.2,15.8,0,15.5,0,15V3.3c0-0.7,0.3-1.2,1-1.5c0.7-0.3,1.3-0.2,1.8,0.4l3.4,3.4
		c1.9-1.8,4-3.1,6.4-4.1S17.4,0,20,0c2.7,0,5.3,0.5,7.8,1.6c2.5,1.1,4.6,2.5,6.4,4.3C35.9,7.6,37.4,9.8,38.4,12.2z"/>
</g>
</svg>
