<svg xmlns="http://www.w3.org/2000/svg" width="1024" height="1024" viewBox="0 0 1024 1024">
	<path transform="matrix(1 0 0 -1 0 960)" style="fill:#3A75E5" d="M381.847 699.695c-81.47 0-163.27-1.656-244.74 0.662-59.943 1.656-135.783-54.644-136.114-134.127-0.994-164.926-0.994-329.853 0-494.779 0.331-73.853 67.56-129.821 122.204-132.471 16.89-0.994 34.111-2.649 51.001-2.649 146.712-0.331 293.092-0.331 439.803 0.331 18.215 0 37.423 2.649 54.644 8.279 59.612 19.539 97.366 73.521 97.366 135.783 0 159.627 0 319.255 0 478.882 0 66.235-47.358 125.185-112.269 139.094-7.617 1.656-15.897 1.325-23.845 1.325-82.794-0.331-165.589-0.331-248.052-0.331zM106.308 68.14c-3.312 0-7.286 0.662-8.611 2.649-2.649 3.312-2.981 8.611-0.994 13.909 2.318 5.961 6.624 10.598 11.26 11.591 2.649 0.662 10.266 1.987 10.266 1.987 3.312 0.662 6.624 1.325 9.935 1.987 27.819 4.968 43.384 16.89 51.995 39.41 38.085 101.671 77.827 204.336 116.243 303.69 14.572 37.754 29.144 75.177 43.384 112.931 11.591 30.799 11.591 30.799 42.722 31.462h1.987c9.273 0 12.254-3.643 15.565-10.929 20.202-48.352 40.404-96.704 60.605-145.387v-0.331c20.202-48.021 40.072-96.041 60.274-144.393 5.63-13.909 11.591-27.488 17.221-41.397l0.331-0.662c15.565-37.092 31.462-75.508 46.696-113.263 6.292-15.897 17.552-24.838 35.105-28.15 2.981-0.662 5.63-1.325 8.611-1.656h0.662c2.981-0.662 5.63-0.994 8.611-1.656 16.228-3.312 17.552-4.636 18.546-21.527 0.331-5.299-0.994-7.286-1.987-8.279-1.656-1.987-4.636-1.987-6.624-1.987-0.994 0-1.656 0-2.649 0-9.273 0.662-18.215 1.325-27.488 1.987-24.507 1.987-50.008 3.974-74.846 3.974-30.137 0-60.605-1.325-90.080-2.318-14.903-0.662-30.137-1.325-45.040-1.656 0 0 0 0 0 0-0.662 0-1.656 0-2.649-0.331-1.325 0-2.318-0.331-3.312-0.331-2.649 0-5.299 0.662-5.63 6.292-0.994 13.247 1.656 18.877 9.935 20.533 3.643 0.994 7.617 1.656 11.26 2.318h0.331c12.254 2.649 25.169 5.299 37.754 8.611 6.292 1.656 10.598 4.305 12.254 7.948s1.656 7.948-0.662 13.909c-14.572 37.754-30.137 75.84-45.040 112.269-1.325 3.312-6.955 6.292-9.935 6.292-12.916 0.331-34.774 0.331-56.3 0.662h-1.325c-33.449 0.331-64.911 0.331-71.203 0.994-0.994 0-1.987 0-3.312 0-9.935 0-15.234-4.305-18.877-14.903-5.63-16.228-11.591-32.455-17.221-48.352-5.961-15.897-11.922-32.124-17.221-48.352-2.981-8.942-3.312-15.234-0.662-20.202 2.318-4.968 7.617-8.611 16.228-11.591 11.591-3.643 22.851-5.961 33.449-7.617 17.552-2.649 17.884-2.981 17.552-20.533-0.331-6.624-2.318-8.942-7.948-8.942-0.331 0-0.662 0-0.994 0-16.89 1.325-34.442 2.649-51.664 3.312l-7.948 0.331c-13.247 0.662-26.825 1.325-40.404 1.325-5.63 0-10.929 0-16.228-0.331-13.247-0.331-27.157-1.987-40.072-3.643-6.624-0.662-13.247-1.656-19.871-2.318-0.662 0.662-1.325 0.662-1.987 0.662zM282.163 291.022c19.208 51.001 37.754 100.678 56.3 150.023 0.994 0.331 1.987 0.662 2.981 0.994 0.662-1.325 1.325-2.649 1.987-3.974 19.208-47.358 38.748-94.717 57.625-142.406 0.662-1.325-3.643-6.955-5.63-6.955-24.507-0.331-49.014 0-73.521 0.331-12.254 0.331-24.838 1.325-39.741 1.987zM376.217 785.801c62.261 0 124.191-0.331 186.453 0.331 10.598 0 13.909-2.981 13.247-13.247-0.662-11.591-0.331-23.182 0-34.774 0-11.591 5.299-19.871 15.897-24.507 10.266-4.305 18.546-0.662 25.832 6.624 32.124 32.124 64.58 64.248 96.373 97.035 12.916 12.916 12.254 24.838-0.662 38.085-31.462 31.793-63.255 63.586-94.717 95.048-7.286 7.286-15.234 12.916-26.494 7.948-11.922-4.968-16.559-14.241-16.559-26.494 0-12.585-0.331-24.838 0-37.423 0.331-7.617-2.981-10.598-10.266-10.598-12.916 0.331-25.832 0-38.417 0-111.276 0-222.882 0-334.158 0-16.559 0-16.559 0-16.559 16.228 0 10.929 0 21.527 0 32.455 0 11.922-4.968 20.533-16.228 25.501-10.598 4.636-18.877 0-25.832-6.955-32.787-32.455-65.242-64.911-97.366-97.697-11.26-11.26-11.26-23.514 0-35.105 32.787-33.78 65.904-66.567 99.022-99.684 6.955-6.955 15.565-9.273 25.169-4.968s14.572 11.922 14.903 22.52c0.331 12.585 0.662 24.838 0 37.423-0.662 10.266 3.312 12.585 12.916 12.585 62.592-0.662 125.185-0.331 187.446-0.331zM848.807 327.783c0-60.937-0.331-122.204 0.331-183.141 0-12.254-3.643-15.565-15.565-14.903-13.247 0.662-26.494 0.662-39.41-1.656-19.208-3.312-26.825-24.507-13.247-38.748 32.787-34.111 66.567-67.56 100.347-100.678 9.604-9.273 22.189-8.942 32.124 0.994 33.449 33.118 66.898 66.235 99.684 99.684 12.916 13.578 6.292 34.774-11.922 38.417-13.578 2.649-27.819 2.318-41.728 1.987-10.598-0.331-14.241 2.649-14.241 13.909 0.331 123.529 0.331 246.727 0 370.256 0 10.266 3.312 13.909 13.578 13.247 11.591-0.662 23.182-0.331 34.774 0 11.26 0 19.871 4.968 24.176 15.565s1.325 19.539-6.292 27.157c-32.455 32.455-64.58 64.911-97.035 97.035-11.922 11.591-22.851 11.591-34.774-0.331-32.787-32.455-65.573-65.242-98.028-98.028-7.617-7.617-9.273-16.89-5.299-26.163 4.305-9.935 12.254-15.234 23.182-15.565 12.254 0 24.838-0.662 37.092 0 9.273 0.662 11.922-2.649 11.922-11.922 0-62.592 0.331-124.854 0.331-187.115z" />
</svg>